<?xml version="1.0" encoding="UTF-8" standalone="no"?>
<svg
   xmlns="http://www.w3.org/2000/svg"
   viewBox="0 0 640 409.10077"
   height="409.10077"
   width="640"
   id="logo">
  
      <path
         id="path36"
         d="m 191.8125,901.31689 c 0.72187,-0.28887 1.58437,-0.25335 1.91667,0.0789 0.33229,0.33229 -0.25834,0.56864 -1.3125,0.52522 -1.16495,-0.048 -1.4019,-0.28494 -0.60417,-0.60416 z m 7,0 c 0.72187,-0.28887 1.58437,-0.25335 1.91667,0.0789 0.33229,0.33229 -0.25834,0.56864 -1.3125,0.52522 -1.16495,-0.048 -1.4019,-0.28494 -0.60417,-0.60416 z M 602,791.02207 C 602,789.06332 602.59729,789 621.07332,789 c 17.6265,0 19.04782,0.13275 18.73708,1.75 -0.3037,1.58066 -2.14937,1.77633 -19.07332,2.02207 C 602.50881,793.03674 602,792.98922 602,791.02207 Z m -36,-17.36215 c 0,-3.29966 0.14491,-3.40555 11.97535,-8.75 6.58644,-2.97546 11.98495,-5.63492 11.99668,-5.90992 0.0117,-0.275 -5.37717,-2.9609 -11.97535,-5.96867 C 566.2162,747.66121 566,747.50352 566,744.28133 566,742.4766 566.23062,741 566.5125,741 c 0.28187,0 7.25687,3.37782 15.5,7.50626 C 596.30961,755.66675 597,756.15013 597,759 c 0,2.84987 -0.69039,3.33325 -14.9875,10.49374 C 573.76937,773.62218 566.79437,777 566.5125,777 566.23062,777 566,775.49696 566,773.65992 Z M 351.5,649.12078 C 344.15819,647.18087 337.73352,642.40549 333.84767,636 c -3.73697,-6.16008 -4.26799,-9.52901 -4.80745,-30.5 L 328.5,584.5 325.25,584.18664 322,583.87328 V 576.93664 570 h 15.5 15.5 v 7 7 h -3.5 -3.5 v 20.35212 c 0,19.52935 0.0922,20.48889 2.28002,23.73543 2.79357,4.14539 6.03156,5.87836 11.01964,5.89771 5.05024,0.0196 9.27587,-2.29551 11.41176,-6.25219 1.49202,-2.76393 1.74842,-6.1352 1.76693,-23.23307 l 0.0217,-20 -4.25,-0.3075 -4.25,-0.3075 V 576.9425 570 h 15.5 15.5 v 7 7 h -2.91406 -2.91407 l -0.33593,21.25 c -0.32389,20.48759 -0.42993,21.45043 -2.95576,26.83648 -3.20774,6.84018 -8.71168,12.5091 -14.72958,15.1711 -4.9288,2.18024 -14.87986,3.12377 -19.6506,1.8632 z m 105,-0.53242 c -4.03632,-1.79396 -7.33949,-5.54191 -8.52388,-9.67163 C 447.43925,637.04479 447,629.54773 447,622.2566 V 609 h -3.5 -3.5 v -7 -7 h 3.5 3.5 v -6.28071 -6.28072 l 7.51654,-3.71928 c 4.1341,-2.04561 7.7341,-3.71929 8,-3.71929 0.2659,0 0.48346,4.5 0.48346,10 v 10 h 5.5 5.5 v 7 7 h -5.5 -5.5 v 13.37756 c 0,15.27386 0.43079,16.23038 6.91791,15.36028 l 3.89877,-0.52294 1.14573,4.55011 c 1.28796,5.11494 1.00732,5.52358 -4.96241,7.22583 -4.752,1.35501 -9.8904,1.20181 -13.5,-0.40248 z m 97.34264,0.49646 C 545.82395,646.48279 541,640.44664 541,633.01497 c 0,-6.21187 2.54003,-10.65978 7.88013,-13.79907 4.24778,-2.49716 5.44542,-2.70958 14.86987,-2.6374 7.56089,0.0579 10.25,-0.24858 10.25,-1.16821 0,-6.65865 -9.36245,-9.27363 -20.91713,-5.84226 -2.90408,0.86242 -5.40544,1.42492 -5.55859,1.25 C 546.91991,610.12774 543,602.04344 543,601.4873 c 0,-0.32581 3.0375,-2.02168 6.75,-3.76861 11.44772,-5.38677 25.2075,-4.99111 32.24085,0.92707 5.49867,4.62682 6.36911,7.51062 6.8228,22.60424 L 589.22696,635 H 592.61348 596 v 7 7 h -11 c -9.1934,0 -11,-0.25057 -11,-1.52568 0,-1.34448 -0.37556,-1.33147 -3.16215,0.10953 -3.68784,1.90706 -13.16453,2.74401 -16.99521,1.50097 z m 16.1972,-13.10514 c 3.46775,-1.76912 3.96016,-2.45299 3.96016,-5.5 L 574,627 h -7.27749 c -10.62849,0 -14.83168,3.89083 -9.72251,9 2.60154,2.60154 7.9168,2.59326 13.03984,-0.0203 z m 136.8028,13.10514 C 698.82395,646.48279 694,640.44664 694,633.01497 c 0,-6.21187 2.54003,-10.65978 7.88013,-13.79907 4.24778,-2.49716 5.44542,-2.70958 14.86987,-2.6374 7.56089,0.0579 10.25,-0.24858 10.25,-1.16821 0,-6.65865 -9.36245,-9.27363 -20.91713,-5.84226 -2.90408,0.86242 -5.40544,1.42492 -5.55859,1.25 C 699.91991,610.12774 696,602.04344 696,601.4873 c 0,-0.32581 3.0375,-2.02168 6.75,-3.76861 11.44772,-5.38677 25.2075,-4.99111 32.24085,0.92707 5.49867,4.62682 6.36911,7.51062 6.8228,22.60424 L 742.22696,635 H 745.61348 749 v 7 7 h -11 c -9.1934,0 -11,-0.25057 -11,-1.52568 0,-1.34448 -0.37556,-1.33147 -3.16215,0.10953 -3.68784,1.90706 -13.16453,2.74401 -16.99521,1.50097 z m 16.1972,-13.10514 c 3.46775,-1.76912 3.96016,-2.45299 3.96016,-5.5 L 727,627 h -7.27749 c -10.62849,0 -14.83168,3.89083 -9.72251,9 2.60154,2.60154 7.9168,2.59326 13.03984,-0.0203 z M 780.5,649.12403 c -11.60043,-3.05262 -19.37681,-12.73358 -20.27463,-25.24026 -0.66138,-9.21305 1.687,-15.89138 7.70383,-21.90821 7.84448,-7.84448 20.19306,-10.20142 31.31007,-5.97606 2.8934,1.09972 7.39823,1.99972 10.01073,2 L 814,598 v 8 8 h -6.87756 c -5.02213,0 -7.22816,-0.42246 -8.17716,-1.56594 -6.02657,-7.26157 -18.82241,-5.1969 -22.34438,3.60538 -2.09841,5.24444 -2.02005,7.46326 0.4433,12.55187 4.07843,8.42491 14.40686,9.85776 20.7968,2.88512 l 3.34221,-3.64697 6.82587,1.67277 c 6.78438,1.66259 6.82011,1.68932 5.87652,4.3961 -2.88724,8.28232 -13.3594,15.08423 -24.13023,15.67313 -3.44045,0.1881 -7.60537,-0.0132 -9.25537,-0.44743 z m 60.83198,-0.0242 c -5.81485,-1.49347 -12.39618,-6.13157 -15.3826,-10.84067 -4.16282,-6.56409 -5.21666,-10.56112 -4.77228,-18.10044 0.9387,-15.92594 12.15817,-26.28425 28.25104,-26.08261 10.72163,0.13434 19.12568,5.01669 24.07186,13.98461 2.67576,4.85142 2.9987,6.358 2.988,13.93931 -0.01,6.82135 -0.44635,9.31651 -2.21137,12.63445 -2.99194,5.62434 -7.86542,10.29611 -13.2042,12.65771 -4.90272,2.1687 -14.8044,3.07541 -19.74045,1.80764 z M 856,633.16737 c 7.99634,-5.78787 7.3685,-19.33985 -1.09884,-23.71848 -11.91674,-6.16239 -24.18904,8.33987 -16.63123,19.65323 4.4278,6.62801 11.8411,8.32777 17.73007,4.06525 z M 402,642 v -7 h 4 4 v -26 -26 h -4 -4 v -7 -7 h 12 12 v 33 33 h 4 4 v 7 7 h -16 -16 z m 82,0.0604 v -6.93964 l 3.75,-0.31036 3.75,-0.31037 v -12.5 -12.5 l -3.75,-0.31037 -3.75,-0.31036 v -6.93964 -6.93963 h 11.5 c 9.55556,0 11.5,0.25362 11.5,1.5 0,0.825 0.39504,1.5 0.87788,1.5 0.48283,0 2.49337,-0.675 4.46788,-1.5 2.18,-0.91086 6.74468,-1.5 11.62212,-1.5 H 532 v 10 10 h -7 -7 v -3.07946 c 0,-2.94649 -0.14032,-3.05021 -3.25,-2.40228 -6.22543,1.29712 -7.18056,3.24606 -7.21724,14.72675 L 507.5,634.5 l 5.25,0.30226 5.25,0.30226 V 642.05226 649 h -17 -17 v -6.93963 z M 609,642 v -7 h 3 3 V 609.5 584 h -3 -3 v -7 -7 l 11.75,0.018 11.75,0.018 15.41991,25.02803 c 8.48095,13.76542 15.80373,25.26524 16.27284,25.55517 0.46911,0.28992 0.73015,-7.71827 0.58009,-17.796 L 664.5,584.5 661.25,584.18664 658,583.87328 V 576.93664 570 h 14.5 14.5 v 7 7 h -3 -3 v 32.5 32.5 h -8.42206 -8.42206 L 649.43191,625.75 C 641.33373,612.9625 634.09865,601.61237 633.35397,600.52749 632.19271,598.83574 632,601.14865 632,616.77749 V 635 h 3 3 v 7 7 H 623.5 609 Z M 93.272364,561 c 0,-2.475 0.195016,-3.4875 0.433369,-2.25 0.238353,1.2375 0.238353,3.2625 0,4.5 -0.238353,1.2375 -0.433369,0.225 -0.433369,-2.25 z M 605.75,451.33772 c 0.6875,-0.27741 1.8125,-0.27741 2.5,0 0.6875,0.27741 0.125,0.50439 -1.25,0.50439 -1.375,0 -1.9375,-0.22698 -1.25,-0.50439 z m 14,-1 c 0.6875,-0.27741 1.8125,-0.27741 2.5,0 0.6875,0.27741 0.125,0.50439 -1.25,0.50439 -1.375,0 -1.9375,-0.22698 -1.25,-0.50439 z m 14,-1 c 0.6875,-0.27741 1.8125,-0.27741 2.5,0 0.6875,0.27741 0.125,0.50439 -1.25,0.50439 -1.375,0 -1.9375,-0.22698 -1.25,-0.50439 z m 14.0625,-1.02083 c 0.72187,-0.28887 1.58438,-0.25335 1.91667,0.0789 0.33229,0.33229 -0.25834,0.56864 -1.3125,0.52522 -1.16495,-0.048 -1.4019,-0.28494 -0.60417,-0.60416 z m 14,-1 c 0.72187,-0.28887 1.58438,-0.25335 1.91667,0.0789 0.33229,0.33229 -0.25834,0.56864 -1.3125,0.52522 -1.16495,-0.048 -1.4019,-0.28494 -0.60417,-0.60416 z m 14,-1 c 0.72187,-0.28887 1.58438,-0.25335 1.91667,0.0789 0.33229,0.33229 -0.25834,0.56864 -1.3125,0.52522 -1.16495,-0.048 -1.4019,-0.28494 -0.60417,-0.60416 z m 14,-1 c 0.72187,-0.28887 1.58438,-0.25335 1.91667,0.0789 0.33229,0.33229 -0.25834,0.56864 -1.3125,0.52522 -1.16495,-0.048 -1.4019,-0.28494 -0.60417,-0.60416 z m 14,-1 c 0.72187,-0.28887 1.58438,-0.25335 1.91667,0.0789 0.33229,0.33229 -0.25834,0.56864 -1.3125,0.52522 -1.16495,-0.048 -1.4019,-0.28494 -0.60417,-0.60416 z m 14,-1 c 0.72187,-0.28887 1.58438,-0.25335 1.91667,0.0789 0.33229,0.33229 -0.25834,0.56864 -1.3125,0.52522 -1.16495,-0.048 -1.4019,-0.28494 -0.60417,-0.60416 z m 14,-1 c 0.72187,-0.28887 1.58438,-0.25335 1.91667,0.0789 0.33229,0.33229 -0.25834,0.56864 -1.3125,0.52522 -1.16495,-0.048 -1.4019,-0.28494 -0.60417,-0.60416 z m 14,-1 c 0.72187,-0.28887 1.58438,-0.25335 1.91667,0.0789 0.33229,0.33229 -0.25834,0.56864 -1.3125,0.52522 -1.16495,-0.048 -1.4019,-0.28494 -0.60417,-0.60416 z m 14,-1 c 0.72187,-0.28887 1.58438,-0.25335 1.91667,0.0789 0.33229,0.33229 -0.25834,0.56864 -1.3125,0.52522 -1.16495,-0.048 -1.4019,-0.28494 -0.60417,-0.60416 z m 14.9375,-0.97917 c 0.6875,-0.27741 1.8125,-0.27741 2.5,0 0.6875,0.27741 0.125,0.50439 -1.25,0.50439 -1.375,0 -1.9375,-0.22698 -1.25,-0.50439 z m 14,-1 c 0.6875,-0.27741 1.8125,-0.27741 2.5,0 0.6875,0.27741 0.125,0.50439 -1.25,0.50439 -1.375,0 -1.9375,-0.22698 -1.25,-0.50439 z m 14,-1 c 0.6875,-0.27741 1.8125,-0.27741 2.5,0 0.6875,0.27741 0.125,0.50439 -1.25,0.50439 -1.375,0 -1.9375,-0.22698 -1.25,-0.50439 z m 14,-1 c 0.6875,-0.27741 1.8125,-0.27741 2.5,0 0.6875,0.27741 0.125,0.50439 -1.25,0.50439 -1.375,0 -1.9375,-0.22698 -1.25,-0.50439 z m 14,-1 c 0.6875,-0.27741 1.8125,-0.27741 2.5,0 0.6875,0.27741 0.125,0.50439 -1.25,0.50439 -1.375,0 -1.9375,-0.22698 -1.25,-0.50439 z m 14,-1 c 0.6875,-0.27741 1.8125,-0.27741 2.5,0 0.6875,0.27741 0.125,0.50439 -1.25,0.50439 -1.375,0 -1.9375,-0.22698 -1.25,-0.50439 z m 14,-1 c 0.6875,-0.27741 1.8125,-0.27741 2.5,0 0.6875,0.27741 0.125,0.50439 -1.25,0.50439 -1.375,0 -1.9375,-0.22698 -1.25,-0.50439 z m 14,-1 c 0.6875,-0.27741 1.8125,-0.27741 2.5,0 0.6875,0.27741 0.125,0.50439 -1.25,0.50439 -1.375,0 -1.9375,-0.22698 -1.25,-0.50439 z m 15.0625,-1.02083 c 0.72187,-0.28887 1.58438,-0.25335 1.91667,0.0789 0.33229,0.33229 -0.25834,0.56864 -1.3125,0.52522 -1.16495,-0.048 -1.4019,-0.28494 -0.60417,-0.60416 z m 12.9375,-0.97917 c 0.6875,-0.27741 1.8125,-0.27741 2.5,0 0.6875,0.27741 0.125,0.50439 -1.25,0.50439 -1.375,0 -1.9375,-0.22698 -1.25,-0.50439 z m 15.0625,-1.02083 c 0.72187,-0.28887 1.58438,-0.25335 1.91667,0.0789 0.33229,0.33229 -0.25834,0.56864 -1.3125,0.52522 -1.16495,-0.048 -1.4019,-0.28494 -0.60417,-0.60416 z m 12.9375,-0.97917 c 0.6875,-0.27741 1.8125,-0.27741 2.5,0 0.6875,0.27741 0.125,0.50439 -1.25,0.50439 -1.375,0 -1.9375,-0.22698 -1.25,-0.50439 z m 15.0625,-1.02083 c 0.72187,-0.28887 1.58438,-0.25335 1.91667,0.0789 0.33229,0.33229 -0.25834,0.56864 -1.3125,0.52522 -1.16495,-0.048 -1.4019,-0.28494 -0.60417,-0.60416 z m 12.9375,-0.97917 c 0.6875,-0.27741 1.8125,-0.27741 2.5,0 0.6875,0.27741 0.125,0.50439 -1.25,0.50439 -1.375,0 -1.9375,-0.22698 -1.25,-0.50439 z m 15.0625,-1.02083 c 0.72187,-0.28887 1.58438,-0.25335 1.91667,0.0789 0.33229,0.33229 -0.25834,0.56864 -1.3125,0.52522 -1.16495,-0.048 -1.4019,-0.28494 -0.60417,-0.60416 z m 14,-1 c 0.72187,-0.28887 1.58438,-0.25335 1.91667,0.0789 0.33229,0.33229 -0.25834,0.56864 -1.3125,0.52522 -1.16495,-0.048 -1.4019,-0.28494 -0.60417,-0.60416 z m 14,-1 c 0.7219,-0.28887 1.5844,-0.25335 1.9167,0.0789 0.3323,0.33229 -0.2584,0.56864 -1.3125,0.52522 -1.16498,-0.048 -1.40193,-0.28494 -0.6042,-0.60416 z m 14,-1 c 0.7219,-0.28887 1.5844,-0.25335 1.9167,0.0789 0.3323,0.33229 -0.2584,0.56864 -1.3125,0.52522 -1.165,-0.048 -1.4019,-0.28494 -0.6042,-0.60416 z m 16,-1 c 0.7219,-0.28887 1.5844,-0.25335 1.9167,0.0789 0.3323,0.33229 -0.2584,0.56864 -1.3125,0.52522 -1.165,-0.048 -1.4019,-0.28494 -0.6042,-0.60416 z m 14,-1 c 0.7219,-0.28887 1.5844,-0.25335 1.9167,0.0789 0.3323,0.33229 -0.2584,0.56864 -1.3125,0.52522 -1.165,-0.048 -1.4019,-0.28494 -0.6042,-0.60416 z M 203,356.62244 c 0,-0.20765 0.7875,-0.99515 1.75,-1.75 1.58606,-1.24387 1.62143,-1.2085 0.37756,0.37756 C 203.82119,356.91575 203,357.44548 203,356.62244 Z M 544.87244,355.25 c -1.24387,-1.58606 -1.2085,-1.62143 0.37756,-0.37756 0.9625,0.75485 1.75,1.54235 1.75,1.75 0,0.82304 -0.82119,0.29331 -2.12756,-1.37244 z m -11.40374,-12.5 -5.9687,-6.25 6.25,5.9687 c 3.4375,3.28278 6.25,6.09528 6.25,6.25 0,0.7389 -0.98689,-0.16298 -6.5313,-5.9687 z M 215.5,343 c 2.70865,-2.75 5.14982,-5 5.42482,-5 0.275,0 -1.71617,2.25 -4.42482,5 -2.70865,2.75 -5.14982,5 -5.42482,5 -0.275,0 1.71617,-2.25 4.42482,-5 z M 228,331.62244 c 0,-0.20765 0.7875,-0.99515 1.75,-1.75 1.58606,-1.24387 1.62143,-1.2085 0.37756,0.37756 C 228.82119,331.91575 228,332.44548 228,331.62244 Z m 169.8125,-53.30555 c 0.72187,-0.28887 1.58438,-0.25335 1.91667,0.0789 0.33229,0.33229 -0.25834,0.56864 -1.3125,0.52522 -1.16495,-0.048 -1.4019,-0.28494 -0.60417,-0.60416 z M 364.75,277.29427 c 1.2375,-0.23836 3.2625,-0.23836 4.5,0 1.2375,0.23835 0.225,0.43337 -2.25,0.43337 -2.475,0 -3.4875,-0.19502 -2.25,-0.43337 z m 17.5,0.0164 c 0.9625,-0.25152 2.5375,-0.25152 3.5,0 0.9625,0.25153 0.175,0.45733 -1.75,0.45733 -1.925,0 -2.7125,-0.2058 -1.75,-0.45733 z"
         style="display:inline;fill:#fefddb" />
      <path
         id="path34"
         d="M 186.26455,892.52274 C 172.74316,888.71513 163.09621,880.73113 157.53645,868.74682 154.4134,862.01494 152.32281,851.16116 128.11533,716 113.78278,635.975 101.76786,568.00866 101.41551,564.96369 c -1.10611,-9.55875 3.63085,-23.37865 10.83263,-31.60381 4.73115,-5.40346 13.77159,-10.88715 20.973,-12.72166 4.22623,-1.07661 28.99916,-3.08116 75.77886,-6.13182 38.225,-2.49278 70.23339,-4.52649 71.12976,-4.51936 1.4395,0.0115 1.56902,-1.26876 1.10939,-10.96588 -1.23605,-26.0781 7.50258,-49.30168 25.73486,-68.39233 18.79061,-19.67529 40.79789,-29.06827 68.02599,-29.03436 14.81687,0.0184 25.78592,2.41445 38.84352,8.48469 30.50542,14.18142 51.44424,44.23478 53.83021,77.26217 0.46281,6.40626 1.04254,8.9963 2.10492,9.40397 0.80641,0.30945 9.6236,0.0412 19.59377,-0.59604 35.51698,-2.27015 172.99904,-11.23628 225.12758,-14.68207 251.4119,-16.6188 298.0815,-19.55501 305.6605,-19.23055 7.5617,0.32371 9.6118,0.8409 16.1581,4.07624 16.2562,8.03428 26.1371,25.38025 24.3161,42.68712 -0.4729,4.49455 -38.5236,147.81791 -45.7967,172.5 -4.8464,16.44657 -13.2704,26.28949 -26.99489,31.54153 -2.9963,1.14662 -35.38987,8.93431 -71.98571,17.30597 l -66.5379,15.22119 -2.64691,-4.96385 c -1.4558,-2.73012 -2.54018,-5.06364 -2.40975,-5.18559 0.13044,-0.12196 31.06216,-7.27319 68.73716,-15.89164 37.675,-8.61844 70.37905,-16.49778 72.67567,-17.50964 5.58836,-2.46216 12.41107,-8.89917 15.06523,-14.21354 1.1891,-2.381 9.866,-32.89854 19.2819,-67.81676 9.416,-34.91822 19.8531,-73.38767 23.1936,-85.48767 8.7519,-31.70167 8.4008,-39.36584 -2.3371,-51.01517 -5.238,-5.68249 -12.4338,-9.48319 -19.2666,-10.1763 -2.812,-0.28525 -15.6877,0.2028 -28.6127,1.08455 -12.925,0.88175 -71.425,4.7441 -130,8.58299 -120.02075,7.86594 -117.06117,7.67275 -253,16.51439 -54.725,3.55939 -110.83833,7.21256 -124.69629,8.11818 -13.85795,0.90561 -25.83112,1.40295 -26.60703,1.10521 -1.0805,-0.41463 -1.54299,-3.78026 -1.9757,-14.3776 -0.63715,-15.60443 -2.68134,-24.45684 -8.27751,-35.84594 -15.60278,-31.75416 -50.60839,-50.2966 -85.13462,-45.09573 -10.63664,1.60226 -22.4601,5.63681 -30.5694,10.43129 -17.92953,10.60053 -32.12187,29.18053 -37.74384,49.41263 -2.91876,10.5039 -3.4376,18.99546 -2.03326,33.27749 0.6822,6.93804 1.00285,12.85214 0.71255,13.14244 -0.2903,0.29031 -10.34842,1.17464 -22.35136,1.96519 -149.10557,9.82051 -138.9122,8.68626 -147.74291,16.43973 -7.41784,6.51295 -12.22377,18.0228 -11.03861,26.43665 0.30988,2.2 12.29132,69.475 26.6254,149.5 21.0212,117.35813 26.53638,146.46707 28.51473,150.5 5.41268,11.03388 16.37266,17.92925 28.31785,17.81593 4.73926,-0.045 32.64016,-6.06821 103,-22.23564 70.0328,-16.09227 97.32281,-21.98573 99.5,-21.48768 1.65,0.37746 10.425,0.96103 19.5,1.29684 L 434.5,840.5 343,861.44087 c -50.325,11.51748 -101.85,23.32615 -114.5,26.24149 -26.22245,6.04326 -34.56756,6.99965 -42.23545,4.84038 z"
         style="display:inline;fill:#ecc83b" />
      <path
         id="path32"
         d="m 403,839.32294 c -1.375,-0.23306 -5.425,-1.33342 -9,-2.44523 -29.87118,-9.28984 -48.31194,-33.83827 -48.36046,-64.37771 -0.0486,-30.58972 18.12651,-54.55929 49.39691,-65.14526 5.22851,-1.77001 13.8307,-1.86297 199.96355,-2.16094 143.47755,-0.22968 196.46745,-0.008 202,0.84385 14.76317,2.27395 28.52291,9.43354 39.23232,20.41372 6.8352,7.00801 11.26507,14.43874 15.07524,25.28742 2.79363,7.95427 3.07319,9.86645 3.03534,20.76121 -0.0351,10.09593 -0.44683,13.23416 -2.59499,19.77805 -6.98871,21.28948 -22.3809,36.7395 -44.24791,44.41418 l -8,2.80777 -197,0.12335 c -108.35,0.0678 -198.125,-0.0673 -199.5,-0.30041 z M 640,791 c 0,-1.92982 -0.66667,-2 -19,-2 -18.33333,0 -19,0.0702 -19,2 0,1.92982 0.66667,2 19,2 18.33333,0 19,-0.0702 19,-2 z M 582.0125,769.49374 C 596.30961,762.33325 597,761.84987 597,759 c 0,-2.84987 -0.69039,-3.33325 -14.9875,-10.49374 C 573.76937,744.37782 566.79437,741 566.5125,741 566.23062,741 566,742.50602 566,744.3467 c 0,3.29397 0.18122,3.43033 11.5,8.6533 6.325,2.91862 11.5,5.58913 11.5,5.93446 0,0.34533 -5.175,3.03603 -11.5,5.97934 -11.33043,5.27257 -11.5,5.40113 -11.5,8.71884 0,1.85205 0.23062,3.36736 0.5125,3.36736 0.28187,0 7.25687,-3.37782 15.5,-7.50626 z M 181.66897,481.20633 c -0.57231,-1.02316 3.34173,-23.55689 4.25627,-24.50408 0.6829,-0.70727 39.52956,8.41922 40.66373,9.55339 0.57243,0.57242 -1.58143,11.02831 -2.44575,11.87288 -0.60298,0.58921 -6.01699,1.03297 -29.89322,2.45022 -5.3625,0.31831 -10.29809,0.74866 -10.96797,0.95633 -0.66989,0.20767 -1.39577,0.0597 -1.61306,-0.32874 z m 332.6471,-29.38565 c -1.20116,-3.45739 -2.10116,-6.35777 -2,-6.4453 1.47665,-1.27769 42.38886,-17.03776 42.91045,-16.52983 0.83064,0.80888 8.99002,25.28752 8.55742,25.67275 -0.15617,0.13907 -5.23394,0.55466 -11.28394,0.92354 -6.05,0.36889 -12.8,0.85193 -15,1.07344 -2.2,0.2215 -7.825,0.67022 -12.5,0.99714 l -8.5,0.59441 z m -304.62851,-5.80736 c -10.34684,-2.64267 -18.97995,-4.97237 -19.18469,-5.17711 -1.07774,-1.07775 15.0052,-36.45271 18.04856,-39.6984 0.29176,-0.31115 33.64637,20.07114 35.68199,21.80451 0.40339,0.34349 -1.66033,5.33449 -4.58604,11.0911 -2.92571,5.75662 -5.81984,11.92908 -6.4314,13.71658 -0.72694,2.1247 -1.73588,3.21852 -2.91396,3.15908 -0.99111,-0.05 -10.26762,-2.25309 -20.61446,-4.89576 z m 292.01406,-20.6209 C 499.6231,421.87853 495.68994,416.0539 492.96125,412.4488 490.23256,408.84371 488,405.73583 488,405.5424 c 0,-0.19343 7.89163,-6.98286 17.53697,-15.08762 14.86102,-12.48739 17.72206,-14.50944 18.75,-13.25165 C 533.53698,388.52158 548,410.68948 548,413.5488 c 0,0.96437 -13.00905,6.60069 -37.6743,16.32282 l -4.84496,1.90971 z M 235.98033,399.8775 c -9.61418,-6.01344 -17.61231,-11.31685 -17.77361,-11.78535 -0.57311,-1.66459 12.66384,-16.99045 24.49886,-28.36503 l 3.92561,-3.77288 13.43441,16.04973 c 7.38892,8.82735 13.4344,16.41218 13.4344,16.85517 0,0.443 -4.50885,5.5634 -10.01967,11.37867 l -10.01968,10.57322 z m 238.42466,-7.99315 c -1.04775,-1.16361 -6.20271,-5.35646 -11.45548,-9.31745 l -9.55048,-7.20181 11.82654,-18.93254 C 471.73016,346.01965 477.47835,337.5 477.99931,337.5 c 1.98487,0 19.70066,13.31298 26.93726,20.24268 l 7.56343,7.24267 -3.94706,3.25733 c -2.17088,1.79152 -9.92675,8.31982 -17.23527,14.50732 -7.30852,6.1875 -13.67509,11.25 -14.14795,11.25 -0.47286,0 -1.71699,-0.95204 -2.76473,-2.11565 z m -201.85235,-28.4474 c -7.53585,-9.01285 -13.42787,-16.82982 -13.09337,-17.37104 1.7914,-2.89855 34.97938,-22.22778 35.92009,-20.92046 0.77839,1.08174 15.62969,38.52584 15.62557,39.39623 -0.003,0.57293 -2.42785,2.23 -5.3892,3.68238 -2.96135,1.45238 -8.52916,4.65651 -12.37291,7.1203 l -6.98864,4.4796 z M 433.5,365.08732 c -3.3,-1.52048 -9.15,-3.79819 -13,-5.06158 -3.85,-1.26338 -7.17059,-2.44411 -7.37908,-2.62382 -0.36853,-0.31766 9.86045,-42.52328 10.4897,-43.28138 1.39513,-1.68081 40.9324,13.88967 40.20321,15.83274 -0.71579,1.90736 -23.35477,37.97317 -23.81383,37.93745 -0.275,-0.0214 -3.2,-1.28294 -6.5,-2.80341 z M 324.89146,357.5696 c -0.4957,-1.13828 -4.20816,-10.28267 -8.24991,-20.32087 l -7.34863,-18.25128 7.02511,-2.09216 c 6.45474,-1.92231 23.6372,-5.90229 31.43197,-7.28061 L 351,309.05 l 0.0765,4.725 c 0.0421,2.59875 0.20578,5.4 0.36377,6.225 0.158,0.825 0.58149,6.45 0.94109,12.5 0.35961,6.05 0.92276,13.3625 1.25145,16.25 l 0.59763,5.25 -3.36523,0.048 c -1.85087,0.0264 -8.24935,1.29523 -14.21885,2.81961 l -10.85364,2.77159 -0.90127,-2.06961 z m 66.02521,-3.93966 c -0.22917,-0.20353 -5.12713,-0.67649 -10.88436,-1.05102 -5.75723,-0.37453 -10.55023,-0.77051 -10.65111,-0.87994 -0.25142,-0.27275 -1.19906,-10.61756 -1.80452,-19.69898 -0.27502,-4.125 -0.78912,-11.2125 -1.14244,-15.75 l -0.6424,-8.25 11.35408,0.003 c 12.28693,0.003 28.81261,1.65368 30.23982,3.02044 0.50959,0.488 -1.3461,9.79361 -4.36971,21.91248 L 397.76059,354 h -3.21363 c -1.76749,0 -3.40113,-0.16653 -3.63029,-0.37006 z"
         style="display:inline;fill:#c14c2b" />
      <path
         id="path28"
         d="m 994.7277,925.27827 c 1.77523,-0.22091 4.92523,-0.22454 7,-0.008 2.0748,0.21648 0.6223,0.39722 -3.2277,0.40166 -3.85,0.004 -5.54754,-0.17268 -3.7723,-0.39359 z m -7.9152,-0.96138 c 0.72187,-0.28887 1.58438,-0.25335 1.91667,0.0789 0.33229,0.33229 -0.25834,0.56864 -1.3125,0.52522 -1.16495,-0.048 -1.4019,-0.28494 -0.60417,-0.60416 z M 1035,910.5 c 1.8658,-1.925 3.6173,-3.5 3.8923,-3.5 0.275,0 -1.0265,1.575 -2.8923,3.5 -1.8658,1.925 -3.6173,3.5 -3.8923,3.5 -0.275,0 1.0265,-1.575 2.8923,-3.5 z m -54.14923,-3.95365 C 974.05784,904.16237 953.875,896.8182 936,890.22597 c -17.875,-6.59222 -50.95,-18.77184 -73.5,-27.06582 -22.55,-8.29397 -46.32621,-17.04273 -52.83602,-19.44167 l -11.83603,-4.36172 5.66128,-1.26694 c 8.64011,-1.93357 22.67915,-9.42543 29.50558,-15.7455 13.34571,-12.35577 20.99495,-28.98748 21.77457,-47.34432 0.31721,-7.4692 0.005,-12.17751 -1.08289,-16.31164 -1.1371,-4.32257 -1.22874,-5.92097 -0.35765,-6.23837 0.64414,-0.2347 7.24616,-1.81313 14.67116,-3.50761 7.425,-1.69448 14.175,-3.23801 15,-3.43007 0.825,-0.19207 7.8,-1.7726 15.5,-3.51231 7.7,-1.73971 14.7875,-3.3514 15.75,-3.58155 0.9625,-0.23015 2.5375,-0.60675 3.5,-0.8369 0.9625,-0.23015 8.05,-1.84184 15.75,-3.58155 7.7,-1.73971 14.7875,-3.3514 15.75,-3.58155 0.9625,-0.23015 2.5375,-0.60675 3.5,-0.8369 0.9625,-0.23015 7.825,-1.80399 15.25,-3.49744 19.01716,-4.33731 20.04355,-4.60866 24.37426,-6.444 5.74991,-2.43679 15.99084,-10.05063 19.53154,-14.52124 1.7096,-2.15848 4.4286,-6.78075 6.0423,-10.2717 2.2239,-4.81104 32.7316,-115.34563 49.0075,-177.5622 2.4556,-9.387 1.4326,-22.47418 -2.4846,-31.78497 -4.6832,-11.13133 -15.3184,-21.89533 -26.5128,-26.83384 -10.032,-4.42571 -19.1406,-5.13186 -42.4582,-3.2916 -3.85,0.30385 -11.05,0.80354 -16,1.11044 -4.95,0.3069 -11.925,0.7569 -15.5,1 -3.575,0.2431 -10.55,0.69791 -15.5,1.01068 -4.95,0.31277 -11.475,0.75674 -14.5,0.98659 -3.025,0.22986 -10,0.68176 -15.5,1.00422 -5.5,0.32247 -12.475,0.77247 -15.5,1 -3.025,0.22754 -10,0.68457 -15.5,1.01564 -5.5,0.33107 -12.025,0.77317 -14.5,0.98245 -2.475,0.20927 -9.45,0.66225 -15.5,1.00662 -6.05,0.34436 -13.25,0.80351 -16,1.02031 -2.75,0.21681 -9.5,0.65149 -15,0.96596 -5.5,0.31447 -12.025,0.76765 -14.5,1.00705 -2.475,0.23941 -9.45,0.70317 -15.5,1.03058 -6.05,0.32741 -13.025,0.76169 -15.5,0.96507 -2.475,0.20337 -9.225,0.6676 -15,1.03161 -5.775,0.36401 -12.075,0.80525 -14,0.98052 -1.925,0.17528 -8.675,0.62293 -15,0.99478 -6.325,0.37186 -13.075,0.82262 -15,1.0017 -1.925,0.17908 -8.9,0.62938 -15.5,1.00067 -6.6,0.37129 -13.8,0.83293 -16,1.02587 -2.2,0.19295 -8.95,0.64156 -15,0.99692 -6.05,0.35536 -12.575,0.79371 -14.5,0.97412 -1.925,0.18041 -8.9,0.6315 -15.5,1.00242 -6.6,0.37092 -13.575,0.82092 -15.5,1 -1.925,0.17908 -8.675,0.62985 -15,1.00171 -6.325,0.37187 -13.075,0.82019 -15,0.99627 -1.925,0.17608 -8.9,0.6274 -15.5,1.00292 -6.6,0.37553 -13.575,0.82553 -15.5,1 -1.925,0.17448 -8.9,0.62448 -15.5,1 -6.6,0.37553 -13.575,0.82645 -15.5,1.00204 -1.925,0.1756 -8.45865,0.61682 -14.51922,0.9805 -6.06057,0.36369 -13.26057,0.80746 -16,0.98618 -2.73943,0.17871 -10.38062,0.64156 -16.98043,1.02854 -6.59981,0.38699 -12.28632,0.88078 -12.63669,1.09732 -0.35038,0.21655 -1.19313,-0.27633 -1.8728,-1.09527 C 475.3112,487.67005 474.96801,487 475.22821,487 c 0.43306,0 0.21411,-1.67906 -1.75034,-13.42296 -0.92275,-5.51638 -6.07093,-19.7676 -9.16411,-25.36814 -14.13407,-25.59127 -35.89307,-43.16365 -62.98138,-50.86322 -12.7732,-3.63064 -33.1189,-4.3181 -46.33238,-1.56551 -27.04476,5.63388 -49.56919,20.711 -64.52701,43.19227 -11.00207,16.53585 -16.50676,33.43077 -16.85978,51.74574 -0.11892,6.16999 -0.41805,11.41165 -0.66472,11.64814 -0.24667,0.23648 -4.94849,0.71718 -10.44849,1.06822 -5.5,0.35105 -12.475,0.8297 -15.5,1.06367 -5.31465,0.41108 -12.90282,0.92012 -30.25,2.02929 -4.5375,0.29012 -11.175,0.72855 -14.75,0.97428 -3.575,0.24573 -11,0.71285 -16.5,1.03805 -5.5,0.3252 -12.025,0.76194 -14.5,0.97053 -2.475,0.20859 -9.45,0.67024 -15.5,1.02589 -6.05,0.35565 -12.71986,0.81506 -14.82191,1.02092 -4.94684,0.48446 -4.49972,-0.93984 1.79457,-5.71662 7.25205,-5.50363 13.72818,-7.24126 31.02734,-8.32506 5.5,-0.34457 12.25,-0.80833 15,-1.03056 4.91549,-0.39724 12.92095,-0.96787 28.25,-2.01366 13.2846,-0.90631 20.66087,-1.54881 20.93562,-1.82356 0.14539,-0.14538 0.53742,-1.98262 0.87118,-4.08274 0.33376,-2.10013 0.78738,-4.75587 1.00804,-5.90166 0.22066,-1.14578 0.66315,-3.83957 0.98332,-5.98619 2.21344,-14.84049 12.82257,-39.07808 23.49521,-53.67712 16.23507,-22.20784 40.41301,-39.87483 66.18924,-48.36495 72.76434,-23.96695 148.34322,15.2049 171.98288,89.13716 l 3.28451,10.27221 7,-0.54398 c 3.85,-0.29918 10.0375,-0.75917 13.75,-1.0222 3.7125,-0.26303 9.9,-0.70324 13.75,-0.97824 3.85,-0.275 10.15,-0.725 14,-1 3.85,-0.275 10.0375,-0.71521 13.75,-0.97824 8.59361,-0.60885 18.76983,-1.33572 28,-2 3.9875,-0.28697 10.5125,-0.75655 14.5,-1.04352 3.9875,-0.28697 10.4,-0.74677 14.25,-1.02177 3.85,-0.275 10.15,-0.725 14,-1 3.85,-0.275 10.0375,-0.7152 13.75,-0.97823 12.02011,-0.85163 23.73915,-1.69113 41.75,-2.99081 6.8927,-0.49739 17.29385,-1.22541 28,-1.95986 11.31964,-0.77653 23.3456,-1.64928 28,-2.03203 2.475,-0.20352 9.45,-0.6628 15.5,-1.02062 6.05,-0.35782 12.575,-0.79467 14.5,-0.97078 1.925,-0.17612 8.225,-0.62222 14,-0.99135 5.775,-0.36912 12.075,-0.82021 14,-1.00242 1.925,-0.18221 8,-0.62 13.5,-0.97287 5.5,-0.35286 12.025,-0.81488 14.5,-1.0267 2.475,-0.21182 8.55,-0.65288 13.5,-0.98014 4.95,-0.32726 11.475,-0.7861 14.5,-1.01964 3.025,-0.23355 8.875,-0.65976 13,-0.94713 15.92863,-1.10971 23.70286,-1.66594 29,-2.07491 3.025,-0.23354 9.55,-0.69238 14.5,-1.01964 4.95,-0.32726 11.025,-0.76832 13.5,-0.98014 2.475,-0.21182 9,-0.68757 14.5,-1.05723 5.5,-0.36966 11.575,-0.79976 13.5,-0.95577 1.925,-0.15601 8.9,-0.60447 15.5,-0.99659 6.6,-0.39211 12.70969,-0.84461 13.5771,-1.00555 0.8674,-0.16095 6.9424,-0.60207 13.5,-0.98028 6.5576,-0.37821 13.4979,-0.83911 15.4229,-1.02423 11.6837,-1.12356 26.776,-1.96605 35,-1.95378 8.5359,0.0127 10.1596,0.3281 16,3.10766 8.073,3.84214 14.1594,9.93849 18.2895,18.3196 2.8172,5.71671 3.1752,7.40764 3.1758,15 6e-4,7.34106 -0.6347,14.14789 -1.9653,21.05697 -0.1797,0.933 -0.6297,4.083 -1,7 -0.3703,2.917 -0.8203,6.067 -1,7 -0.1797,0.933 -0.6297,4.083 -1,7 -0.3703,2.917 -0.8203,6.067 -1,7 -0.1797,0.933 -0.6297,4.083 -1,7 -0.3703,2.917 -0.8094,6.02282 -0.9758,6.90182 -0.1663,0.879 -0.6049,3.84818 -0.9745,6.59818 -0.3696,2.75 -2.8586,20.3 -5.5311,39 -2.6725,18.7 -5.1589,36.43082 -5.5255,39.40182 -0.3665,2.971 -0.8134,6.16518 -0.9931,7.09818 -0.1797,0.933 -0.6297,4.083 -1,7 -0.3703,2.917 -0.8203,6.067 -1,7 -0.1797,0.933 -0.6297,4.083 -1,7 -0.3703,2.917 -0.8203,6.067 -1,7 -0.1797,0.933 -0.6297,4.083 -1,7 -0.3703,2.917 -0.8203,6.067 -1,7 -0.1797,0.933 -0.6297,4.083 -1,7 -0.3703,2.917 -0.8203,6.067 -1,7 -0.1797,0.933 -0.6297,4.083 -1,7 -0.3703,2.917 -0.8094,6.02282 -0.9758,6.90182 -0.1663,0.879 -0.598,3.84818 -0.9593,6.59818 -0.3613,2.75 -0.836,6.125 -1.055,7.5 -0.5394,3.38633 -8.4494,59.48074 -9.0954,64.5 -0.2831,2.2 -0.6858,4.675 -0.8949,5.5 -0.2091,0.825 -0.6524,4.03578 -0.9852,7.13506 -0.3327,3.09928 -0.7751,6.51846 -0.983,7.59818 -0.208,1.07971 -0.6811,4.34976 -1.0514,7.26676 -0.3703,2.917 -0.8203,6.067 -1,7 -0.1797,0.933 -0.6297,4.083 -1,7 -0.3703,2.917 -0.8203,6.067 -1,7 -0.1797,0.933 -0.6297,4.083 -1,7 -0.3703,2.917 -0.8203,6.067 -1,7 -0.1797,0.933 -0.6297,4.083 -1,7 -0.3703,2.917 -0.8203,6.067 -1,7 -0.1797,0.933 -0.6297,4.083 -1,7 -0.3703,2.917 -0.8094,6.02282 -0.9758,6.90182 -0.1663,0.879 -0.603,3.84818 -0.9703,6.59818 -1.8539,13.87946 -4.9557,20.79596 -12.4844,27.83825 -6.8738,6.42959 -14.5158,9.71582 -23.6702,10.17869 -6.43521,0.32538 -8.50625,-0.0953 -19.54853,-3.97059 z M 194.75,901.33772 c 0.6875,-0.27741 1.8125,-0.27741 2.5,0 0.6875,0.27741 0.125,0.50439 -1.25,0.50439 -1.375,0 -1.9375,-0.22698 -1.25,-0.50439 z m -7.9375,-1.02083 c 0.72187,-0.28887 1.58437,-0.25335 1.91667,0.0789 0.33229,0.33229 -0.25834,0.56864 -1.3125,0.52522 -1.16495,-0.048 -1.4019,-0.28494 -0.60417,-0.60416 z m 17,0 c 0.72187,-0.28887 1.58437,-0.25335 1.91667,0.0789 0.33229,0.33229 -0.25834,0.56864 -1.3125,0.52522 -1.16495,-0.048 -1.4019,-0.28494 -0.60417,-0.60416 z m 5,-1 c 0.72187,-0.28887 1.58437,-0.25335 1.91667,0.0789 0.33229,0.33229 -0.25834,0.56864 -1.3125,0.52522 -1.16495,-0.048 -1.4019,-0.28494 -0.60417,-0.60416 z m -36.37137,-3.87206 c -1.86402,-1.49339 -1.85176,-1.51185 0.30887,-0.46481 1.2375,0.59969 2.25,1.29951 2.25,1.55516 0,0.76522 -0.51861,0.54424 -2.55887,-1.09035 z m 58.37137,-1.12794 c 0.72187,-0.28887 1.58437,-0.25335 1.91667,0.0789 0.33229,0.33229 -0.25834,0.56864 -1.3125,0.52522 -1.16495,-0.048 -1.4019,-0.28494 -0.60417,-0.60416 z m 13,-3 c 0.72187,-0.28887 1.58437,-0.25335 1.91667,0.0789 0.33229,0.33229 -0.25834,0.56864 -1.3125,0.52522 -1.16495,-0.048 -1.4019,-0.28494 -0.60417,-0.60416 z M 159.92431,886.25 157.5,883.5 l 2.75,2.42431 c 2.57029,2.26589 3.20859,3.07569 2.42431,3.07569 -0.17912,0 -1.41662,-1.2375 -2.75,-2.75 z m 127.88819,-4.93311 c 0.72187,-0.28887 1.58438,-0.25335 1.91667,0.0789 0.33229,0.33229 -0.25834,0.56864 -1.3125,0.52522 -1.16495,-0.048 -1.4019,-0.28494 -0.60417,-0.60416 z m 762.2664,-0.90022 c 0.048,-1.16495 0.285,-1.4019 0.6042,-0.60417 0.2889,0.72187 0.2534,1.58438 -0.079,1.91667 -0.3323,0.33229 -0.5687,-0.25834 -0.5253,-1.3125 z M 1051.1579,874 c 0,-1.375 0.227,-1.9375 0.5044,-1.25 0.2774,0.6875 0.2774,1.8125 0,2.5 -0.2774,0.6875 -0.5044,0.125 -0.5044,-1.25 z m 1,-7 c 0,-1.375 0.227,-1.9375 0.5044,-1.25 0.2774,0.6875 0.2774,1.8125 0,2.5 -0.2774,0.6875 -0.5044,0.125 -0.5044,-1.25 z m -672.3454,-6.68311 c 0.72187,-0.28887 1.58438,-0.25335 1.91667,0.0789 0.33229,0.33229 -0.25834,0.56864 -1.3125,0.52522 -1.16495,-0.048 -1.4019,-0.28494 -0.60417,-0.60416 z m 673.2664,-0.90022 c 0.048,-1.16495 0.285,-1.4019 0.6042,-0.60417 0.2889,0.72187 0.2534,1.58438 -0.079,1.91667 -0.3323,0.33229 -0.5687,-0.25834 -0.5253,-1.3125 z m -907.99995,-5 c 0.048,-1.16495 0.28494,-1.4019 0.60416,-0.60417 0.28887,0.72187 0.25335,1.58438 -0.0789,1.91667 -0.3323,0.33229 -0.56864,-0.25834 -0.52522,-1.3125 z m 908.99995,-2 c 0.048,-1.16495 0.285,-1.4019 0.6042,-0.60417 0.2889,0.72187 0.2534,1.58438 -0.079,1.91667 -0.3323,0.33229 -0.5687,-0.25834 -0.5253,-1.3125 z m -639.2664,-0.0998 c 0.72187,-0.28887 1.58438,-0.25335 1.91667,0.0789 0.33229,0.33229 -0.25834,0.56864 -1.3125,0.52522 -1.16495,-0.048 -1.4019,-0.28494 -0.60417,-0.60416 z m 640.2664,-6.90022 c 0.048,-1.16495 0.285,-1.4019 0.6042,-0.60417 0.2889,0.72187 0.2534,1.58438 -0.079,1.91667 -0.3323,0.33229 -0.5687,-0.25834 -0.5253,-1.3125 z m -911.99995,-2 c 0.048,-1.16495 0.28494,-1.4019 0.60416,-0.60417 0.28887,0.72187 0.25335,1.58438 -0.0789,1.91667 -0.3323,0.33229 -0.56864,-0.25834 -0.52522,-1.3125 z m 306.73355,0.90022 c 0.72187,-0.28887 1.58438,-0.25335 1.91667,0.0789 0.33229,0.33229 -0.25834,0.56864 -1.3125,0.52522 -1.16495,-0.048 -1.4019,-0.28494 -0.60417,-0.60416 z m 13,-3 c 0.72187,-0.28887 1.58438,-0.25335 1.91667,0.0789 0.33229,0.33229 -0.25834,0.56864 -1.3125,0.52522 -1.16495,-0.048 -1.4019,-0.28494 -0.60417,-0.60416 z m 593.2664,-2.90022 c 0.048,-1.16495 0.285,-1.4019 0.6042,-0.60417 0.2889,0.72187 0.2534,1.58438 -0.079,1.91667 -0.3323,0.33229 -0.5687,-0.25834 -0.5253,-1.3125 z m -913.99995,-1 c 0.048,-1.16495 0.28494,-1.4019 0.60416,-0.60417 0.28887,0.72187 0.25335,1.58438 -0.0789,1.91667 -0.3323,0.33229 -0.56864,-0.25834 -0.52522,-1.3125 z m -1,-5 c 0.048,-1.16495 0.28494,-1.4019 0.60416,-0.60417 0.28887,0.72187 0.25335,1.58438 -0.0789,1.91667 -0.3323,0.33229 -0.56864,-0.25834 -0.52522,-1.3125 z m 915.99995,-1 c 0.048,-1.16495 0.285,-1.4019 0.6042,-0.60417 0.2889,0.72187 0.2534,1.58438 -0.079,1.91667 -0.3323,0.33229 -0.5687,-0.25834 -0.5253,-1.3125 z m -916.99995,-5 c 0.048,-1.16495 0.28494,-1.4019 0.60416,-0.60417 0.28887,0.72187 0.25335,1.58438 -0.0789,1.91667 -0.3323,0.33229 -0.56864,-0.25834 -0.52522,-1.3125 z m 917.99995,-2 c 0.048,-1.16495 0.285,-1.4019 0.6042,-0.60417 0.2889,0.72187 0.2534,1.58438 -0.079,1.91667 -0.3323,0.33229 -0.5687,-0.25834 -0.5253,-1.3125 z m -918.99995,-3 c 0.048,-1.16495 0.28494,-1.4019 0.60416,-0.60417 0.28887,0.72187 0.25335,1.58438 -0.0789,1.91667 -0.3323,0.33229 -0.56864,-0.25834 -0.52522,-1.3125 z m 919.99995,-4 c 0.048,-1.16495 0.285,-1.4019 0.6042,-0.60417 0.2889,0.72187 0.2534,1.58438 -0.079,1.91667 -0.3323,0.33229 -0.5687,-0.25834 -0.5253,-1.3125 z m -920.99995,-2 c 0.048,-1.16495 0.28494,-1.4019 0.60416,-0.60417 0.28887,0.72187 0.25335,1.58438 -0.0789,1.91667 -0.3323,0.33229 -0.56864,-0.25834 -0.52522,-1.3125 z m 921.99995,-5 c 0.048,-1.16495 0.285,-1.4019 0.6042,-0.60417 0.2889,0.72187 0.2534,1.58438 -0.079,1.91667 -0.3323,0.33229 -0.5687,-0.25834 -0.5253,-1.3125 z m -922.99995,-1 c 0.048,-1.16495 0.28494,-1.4019 0.60416,-0.60417 0.28887,0.72187 0.25335,1.58438 -0.0789,1.91667 -0.3323,0.33229 -0.56864,-0.25834 -0.52522,-1.3125 z m -1,-5 c 0.048,-1.16495 0.28494,-1.4019 0.60416,-0.60417 0.28887,0.72187 0.25335,1.58438 -0.0789,1.91667 -0.3323,0.33229 -0.56864,-0.25834 -0.52522,-1.3125 z m 924.99995,-1 c 0.048,-1.16495 0.285,-1.4019 0.6042,-0.60417 0.2889,0.72187 0.2534,1.58438 -0.079,1.91667 -0.3323,0.33229 -0.5687,-0.25834 -0.5253,-1.3125 z m -925.99995,-5 c 0.048,-1.16495 0.28494,-1.4019 0.60416,-0.60417 0.28887,0.72187 0.25335,1.58438 -0.0789,1.91667 -0.3323,0.33229 -0.56864,-0.25834 -0.52522,-1.3125 z M 1062.1579,796 c 0,-1.375 0.227,-1.9375 0.5044,-1.25 0.2774,0.6875 0.2774,1.8125 0,2.5 -0.2774,0.6875 -0.5044,0.125 -0.5044,-1.25 z m -928.07895,-2.58333 c 0.048,-1.16495 0.28494,-1.4019 0.60416,-0.60417 0.28887,0.72187 0.25335,1.58438 -0.0789,1.91667 -0.3323,0.33229 -0.56864,-0.25834 -0.52522,-1.3125 z M 1063.1579,789 c 0,-1.375 0.227,-1.9375 0.5044,-1.25 0.2774,0.6875 0.2774,1.8125 0,2.5 -0.2774,0.6875 -0.5044,0.125 -0.5044,-1.25 z m -930.07895,-1.58333 c 0.048,-1.16495 0.28494,-1.4019 0.60416,-0.60417 0.28887,0.72187 0.25335,1.58438 -0.0789,1.91667 -0.3323,0.33229 -0.56864,-0.25834 -0.52522,-1.3125 z M 1064.1579,782 c 0,-1.375 0.227,-1.9375 0.5044,-1.25 0.2774,0.6875 0.2774,1.8125 0,2.5 -0.2774,0.6875 -0.5044,0.125 -0.5044,-1.25 z m -933.07895,-5.58333 c 0.048,-1.16495 0.28494,-1.4019 0.60416,-0.60417 0.28887,0.72187 0.25335,1.58438 -0.0789,1.91667 -0.3323,0.33229 -0.56864,-0.25834 -0.52522,-1.3125 z M 1065.1579,775 c 0,-1.375 0.227,-1.9375 0.5044,-1.25 0.2774,0.6875 0.2774,1.8125 0,2.5 -0.2774,0.6875 -0.5044,0.125 -0.5044,-1.25 z m -935.07895,-4.58333 c 0.048,-1.16495 0.28494,-1.4019 0.60416,-0.60417 0.28887,0.72187 0.25335,1.58438 -0.0789,1.91667 -0.3323,0.33229 -0.56864,-0.25834 -0.52522,-1.3125 z M 1066.1579,768 c 0,-1.375 0.227,-1.9375 0.5044,-1.25 0.2774,0.6875 0.2774,1.8125 0,2.5 -0.2774,0.6875 -0.5044,0.125 -0.5044,-1.25 z m -937.07895,-2.58333 c 0.048,-1.16495 0.28494,-1.4019 0.60416,-0.60417 0.28887,0.72187 0.25335,1.58438 -0.0789,1.91667 -0.3323,0.33229 -0.56864,-0.25834 -0.52522,-1.3125 z M 1067.1579,761 c 0,-1.375 0.227,-1.9375 0.5044,-1.25 0.2774,0.6875 0.2774,1.8125 0,2.5 -0.2774,0.6875 -0.5044,0.125 -0.5044,-1.25 z m -939.07895,-1.58333 c 0.048,-1.16495 0.28494,-1.4019 0.60416,-0.60417 0.28887,0.72187 0.25335,1.58438 -0.0789,1.91667 -0.3323,0.33229 -0.56864,-0.25834 -0.52522,-1.3125 z m -1,-5 c 0.048,-1.16495 0.28494,-1.4019 0.60416,-0.60417 0.28887,0.72187 0.25335,1.58438 -0.0789,1.91667 -0.33229,0.33229 -0.56864,-0.25834 -0.52522,-1.3125 z M 1068.1579,754 c 0,-1.375 0.227,-1.9375 0.5044,-1.25 0.2774,0.6875 0.2774,1.8125 0,2.5 -0.2774,0.6875 -0.5044,0.125 -0.5044,-1.25 z m -942.07895,-5.58333 c 0.048,-1.16495 0.28494,-1.4019 0.60416,-0.60417 0.28887,0.72187 0.25335,1.58438 -0.0789,1.91667 -0.3323,0.33229 -0.56864,-0.25834 -0.52522,-1.3125 z M 1069.1579,747 c 0,-1.375 0.227,-1.9375 0.5044,-1.25 0.2774,0.6875 0.2774,1.8125 0,2.5 -0.2774,0.6875 -0.5044,0.125 -0.5044,-1.25 z m 1,-7 c 0,-1.375 0.227,-1.9375 0.5044,-1.25 0.2774,0.6875 0.2774,1.8125 0,2.5 -0.2774,0.6875 -0.5044,0.125 -0.5044,-1.25 z m -946.07895,-2.58333 c 0.048,-1.16495 0.28494,-1.4019 0.60416,-0.60417 0.28887,0.72187 0.25335,1.58438 -0.0789,1.91667 -0.3323,0.33229 -0.56864,-0.25834 -0.52522,-1.3125 z M 1071.1579,733 c 0,-1.375 0.227,-1.9375 0.5044,-1.25 0.2774,0.6875 0.2774,1.8125 0,2.5 -0.2774,0.6875 -0.5044,0.125 -0.5044,-1.25 z m -948.07895,-1.58333 c 0.048,-1.16495 0.28494,-1.4019 0.60416,-0.60417 0.28887,0.72187 0.25335,1.58438 -0.0789,1.91667 -0.3323,0.33229 -0.56864,-0.25834 -0.52522,-1.3125 z m -1,-5 c 0.048,-1.16495 0.28494,-1.4019 0.60416,-0.60417 0.28887,0.72187 0.25335,1.58438 -0.0789,1.91667 -0.3323,0.33229 -0.56864,-0.25834 -0.52522,-1.3125 z M 1072.1579,726 c 0,-1.375 0.227,-1.9375 0.5044,-1.25 0.2774,0.6875 0.2774,1.8125 0,2.5 -0.2774,0.6875 -0.5044,0.125 -0.5044,-1.25 z m -951.07895,-5.58333 c 0.048,-1.16495 0.28494,-1.4019 0.60416,-0.60417 0.28887,0.72187 0.25335,1.58438 -0.0789,1.91667 -0.3323,0.33229 -0.56864,-0.25834 -0.52522,-1.3125 z M 1073.1579,719 c 0,-1.375 0.227,-1.9375 0.5044,-1.25 0.2774,0.6875 0.2774,1.8125 0,2.5 -0.2774,0.6875 -0.5044,0.125 -0.5044,-1.25 z m -953.07895,-3.58333 c 0.048,-1.16495 0.28494,-1.4019 0.60416,-0.60417 0.28887,0.72187 0.25335,1.58438 -0.0789,1.91667 -0.3323,0.33229 -0.56864,-0.25834 -0.52522,-1.3125 z M 1074.1579,712 c 0,-1.375 0.227,-1.9375 0.5044,-1.25 0.2774,0.6875 0.2774,1.8125 0,2.5 -0.2774,0.6875 -0.5044,0.125 -0.5044,-1.25 z m -955.07895,-2.58333 c 0.048,-1.16495 0.28494,-1.4019 0.60416,-0.60417 0.28887,0.72187 0.25335,1.58438 -0.0789,1.91667 -0.3323,0.33229 -0.56864,-0.25834 -0.52522,-1.3125 z m 955.99995,-5 c 0.048,-1.16495 0.285,-1.4019 0.6042,-0.60417 0.2889,0.72187 0.2534,1.58438 -0.079,1.91667 -0.3323,0.33229 -0.5687,-0.25834 -0.5253,-1.3125 z m -957.99995,-6 c 0.048,-1.16495 0.28494,-1.4019 0.60416,-0.60417 0.28887,0.72187 0.25335,1.58438 -0.0789,1.91667 -0.3323,0.33229 -0.56864,-0.25834 -0.52522,-1.3125 z m 958.99995,-1 c 0.048,-1.16495 0.285,-1.4019 0.6042,-0.60417 0.2889,0.72187 0.2534,1.58438 -0.079,1.91667 -0.3323,0.33229 -0.5687,-0.25834 -0.5253,-1.3125 z m -959.99995,-5 c 0.048,-1.16495 0.28494,-1.4019 0.60416,-0.60417 0.28887,0.72187 0.25335,1.58438 -0.0789,1.91667 -0.3323,0.33229 -0.56864,-0.25834 -0.52522,-1.3125 z m 960.99995,-2 c 0.048,-1.16495 0.285,-1.4019 0.6042,-0.60417 0.2889,0.72187 0.2534,1.58438 -0.079,1.91667 -0.3323,0.33229 -0.5687,-0.25834 -0.5253,-1.3125 z m -961.99995,-3 c 0.048,-1.16495 0.28494,-1.4019 0.60416,-0.60417 0.28887,0.72187 0.25335,1.58438 -0.0789,1.91667 -0.3323,0.33229 -0.56864,-0.25834 -0.52522,-1.3125 z m 962.99995,-4 c 0.048,-1.16495 0.285,-1.4019 0.6042,-0.60417 0.2889,0.72187 0.2534,1.58438 -0.079,1.91667 -0.3323,0.33229 -0.5687,-0.25834 -0.5253,-1.3125 z m -963.99995,-2 c 0.048,-1.16495 0.28494,-1.4019 0.60416,-0.60417 0.28887,0.72187 0.25335,1.58438 -0.0789,1.91667 -0.3323,0.33229 -0.56864,-0.25834 -0.52522,-1.3125 z m -1,-5 c 0.048,-1.16495 0.28494,-1.4019 0.60416,-0.60417 0.28887,0.72187 0.25335,1.58438 -0.0789,1.91667 -0.3323,0.33229 -0.56864,-0.25834 -0.52522,-1.3125 z m 965.99995,0 c 0.048,-1.16495 0.285,-1.4019 0.6042,-0.60417 0.2889,0.72187 0.2534,1.58438 -0.079,1.91667 -0.3323,0.33229 -0.5687,-0.25834 -0.5253,-1.3125 z m -966.99995,-6 c 0.048,-1.16495 0.28494,-1.4019 0.60416,-0.60417 0.28887,0.72187 0.25335,1.58438 -0.0789,1.91667 -0.3323,0.33229 -0.56864,-0.25834 -0.52522,-1.3125 z m 967.99995,-1 c 0.048,-1.16495 0.285,-1.4019 0.6042,-0.60417 0.2889,0.72187 0.2534,1.58438 -0.079,1.91667 -0.3323,0.33229 -0.5687,-0.25834 -0.5253,-1.3125 z m 1,-7 c 0.048,-1.16495 0.285,-1.4019 0.6042,-0.60417 0.2889,0.72187 0.2534,1.58438 -0.079,1.91667 -0.3323,0.33229 -0.5687,-0.25834 -0.5253,-1.3125 z m -970.99995,-3 c 0.048,-1.16495 0.28494,-1.4019 0.60416,-0.60417 0.28887,0.72187 0.25335,1.58438 -0.0789,1.91667 -0.3323,0.33229 -0.56864,-0.25834 -0.52522,-1.3125 z m 971.99995,-4 c 0.048,-1.16495 0.285,-1.4019 0.6042,-0.60417 0.2889,0.72187 0.2534,1.58438 -0.079,1.91667 -0.3323,0.33229 -0.5687,-0.25834 -0.5253,-1.3125 z m -972.99995,-2 c 0.048,-1.16495 0.28494,-1.4019 0.60416,-0.60417 0.28887,0.72187 0.25335,1.58438 -0.0789,1.91667 -0.3323,0.33229 -0.56864,-0.25834 -0.52522,-1.3125 z m -1,-5 c 0.048,-1.16495 0.28494,-1.4019 0.60416,-0.60417 0.28887,0.72187 0.25335,1.58438 -0.0789,1.91667 -0.3323,0.33229 -0.56864,-0.25834 -0.52522,-1.3125 z m 974.99995,0 c 0.048,-1.16495 0.285,-1.4019 0.6042,-0.60417 0.2889,0.72187 0.2534,1.58438 -0.079,1.91667 -0.3323,0.33229 -0.5687,-0.25834 -0.5253,-1.3125 z M 434.33621,642 c 0,-4.125 0.17651,-5.8125 0.39226,-3.75 0.21574,2.0625 0.21574,5.4375 0,7.5 -0.21575,2.0625 -0.39226,0.375 -0.39226,-3.75 z m 174,0 c 0,-4.125 0.17651,-5.8125 0.39226,-3.75 0.21574,2.0625 0.21574,5.4375 0,7.5 -0.21575,2.0625 -0.39226,0.375 -0.39226,-3.75 z m 73.11066,-25 c 0,-17.875 0.1356,-25.1875 0.30134,-16.25 0.16573,8.9375 0.16573,23.5625 0,32.5 -0.16574,8.9375 -0.30134,1.625 -0.30134,-16.25 z m -574.36792,25.41667 c 0.048,-1.16495 0.28494,-1.4019 0.60416,-0.60417 0.28887,0.72187 0.25335,1.58438 -0.0789,1.91667 -0.3323,0.33229 -0.56864,-0.25834 -0.52522,-1.3125 z M 1084.1579,641 c 0,-1.375 0.227,-1.9375 0.5044,-1.25 0.2774,0.6875 0.2774,1.8125 0,2.5 -0.2774,0.6875 -0.5044,0.125 -0.5044,-1.25 z m -978.07895,-3.58333 c 0.048,-1.16495 0.28494,-1.4019 0.60416,-0.60417 0.28887,0.72187 0.25335,1.58438 -0.0789,1.91667 -0.3323,0.33229 -0.56864,-0.25834 -0.52522,-1.3125 z m 434,-3 c 0.048,-1.16495 0.28494,-1.4019 0.60416,-0.60417 0.28887,0.72187 0.25335,1.58438 -0.0789,1.91667 -0.33229,0.33229 -0.56864,-0.25834 -0.52522,-1.3125 z m 153,0 c 0.048,-1.16495 0.28494,-1.4019 0.60416,-0.60417 0.28887,0.72187 0.25335,1.58438 -0.0789,1.91667 -0.33229,0.33229 -0.56864,-0.25834 -0.52522,-1.3125 z M 1085.1579,634 c 0,-1.375 0.227,-1.9375 0.5044,-1.25 0.2774,0.6875 0.2774,1.8125 0,2.5 -0.2774,0.6875 -0.5044,0.125 -0.5044,-1.25 z m -512.20675,-3.27606 c 0.48674,-4.11996 0.50759,-4.1408 0.84678,-0.84678 0.19127,1.85743 -0.0333,3.75821 -0.49903,4.22394 -0.46573,0.46573 -0.62222,-1.05399 -0.34775,-3.37716 z m 153,0 c 0.48674,-4.11996 0.50759,-4.1408 0.84678,-0.84678 0.19127,1.85743 -0.0333,3.75821 -0.49903,4.22394 -0.46573,0.46573 -0.62222,-1.05399 -0.34775,-3.37716 z m -170.8722,1.69273 c 0.048,-1.16495 0.28494,-1.4019 0.60416,-0.60417 0.28887,0.72187 0.25335,1.58438 -0.0789,1.91667 -0.33229,0.33229 -0.56864,-0.25834 -0.52522,-1.3125 z m 153,0 c 0.048,-1.16495 0.28494,-1.4019 0.60416,-0.60417 0.28887,0.72187 0.25335,1.58438 -0.0789,1.91667 -0.33229,0.33229 -0.56864,-0.25834 -0.52522,-1.3125 z m -603,-1 c 0.048,-1.16495 0.28494,-1.4019 0.60416,-0.60417 0.28887,0.72187 0.25335,1.58438 -0.0789,1.91667 -0.3323,0.33229 -0.56864,-0.25834 -0.52522,-1.3125 z M 1086.1579,627 c 0,-1.375 0.227,-1.9375 0.5044,-1.25 0.2774,0.6875 0.2774,1.8125 0,2.5 -0.2774,0.6875 -0.5044,0.125 -0.5044,-1.25 z m -327.07895,-3.58333 c 0.048,-1.16495 0.28494,-1.4019 0.60416,-0.60417 0.28887,0.72187 0.25335,1.58438 -0.0789,1.91667 -0.33229,0.33229 -0.56864,-0.25834 -0.52522,-1.3125 z m 61,0 c 0.048,-1.16495 0.28494,-1.4019 0.60416,-0.60417 0.28887,0.72187 0.25335,1.58438 -0.0789,1.91667 -0.33229,0.33229 -0.56864,-0.25834 -0.52522,-1.3125 z m -45,-1 c 0.048,-1.16495 0.28494,-1.4019 0.60416,-0.60417 0.28887,0.72187 0.25335,1.58438 -0.0789,1.91667 -0.33229,0.33229 -0.56864,-0.25834 -0.52522,-1.3125 z m 102,-1 c 0.048,-1.16495 0.28494,-1.4019 0.60416,-0.60417 0.28887,0.72187 0.25335,1.58438 -0.0789,1.91667 -0.33229,0.33229 -0.56864,-0.25834 -0.52522,-1.3125 z m -774,-1 c 0.048,-1.16495 0.28494,-1.4019 0.60416,-0.60417 0.28887,0.72187 0.25335,1.58438 -0.0789,1.91667 -0.3323,0.33229 -0.56864,-0.25834 -0.52522,-1.3125 z M 1087.1579,620 c 0,-1.375 0.227,-1.9375 0.5044,-1.25 0.2774,0.6875 0.2774,1.8125 0,2.5 -0.2774,0.6875 -0.5044,0.125 -0.5044,-1.25 z m -759.00001,-1 c 0,-1.375 0.22698,-1.9375 0.50439,-1.25 0.27741,0.6875 0.27741,1.8125 0,2.5 -0.27741,0.6875 -0.50439,0.125 -0.50439,-1.25 z m 430.92106,0.41667 c 0.048,-1.16495 0.28494,-1.4019 0.60416,-0.60417 0.28887,0.72187 0.25335,1.58438 -0.0789,1.91667 -0.33229,0.33229 -0.56864,-0.25834 -0.52522,-1.3125 z m 61,0 c 0.048,-1.16495 0.28494,-1.4019 0.60416,-0.60417 0.28887,0.72187 0.25335,1.58438 -0.0789,1.91667 -0.33229,0.33229 -0.56864,-0.25834 -0.52522,-1.3125 z M 389.40918,601.5 c -10e-4,-9.35 0.14916,-13.3096 0.33401,-8.7991 0.18486,4.51049 0.1858,12.16049 0.002,17 -0.1837,4.8395 -0.33495,1.1491 -0.3361,-8.2009 z m -287.33023,12.91667 c 0.048,-1.16495 0.28494,-1.4019 0.60416,-0.60417 0.28887,0.72187 0.25335,1.58438 -0.0789,1.91667 -0.3323,0.33229 -0.56864,-0.25834 -0.52522,-1.3125 z M 1088.1579,613 c 0,-1.375 0.227,-1.9375 0.5044,-1.25 0.2774,0.6875 0.2774,1.8125 0,2.5 -0.2774,0.6875 -0.5044,0.125 -0.5044,-1.25 z m -987.07895,-3.58333 c 0.048,-1.16495 0.28494,-1.4019 0.60416,-0.60417 0.28887,0.72187 0.25335,1.58438 -0.0789,1.91667 -0.3323,0.33229 -0.56864,-0.25834 -0.52522,-1.3125 z M 483.33621,602 c 0,-4.125 0.17651,-5.8125 0.39226,-3.75 0.21574,2.0625 0.21574,5.4375 0,7.5 -0.21575,2.0625 -0.39226,0.375 -0.39226,-3.75 z m 605.82169,4 c 0,-1.375 0.227,-1.9375 0.5044,-1.25 0.2774,0.6875 0.2774,1.8125 0,2.5 -0.2774,0.6875 -0.5044,0.125 -0.5044,-1.25 z m -989.07895,-2.58333 c 0.048,-1.16495 0.28494,-1.4019 0.60416,-0.60417 0.28887,0.72187 0.25335,1.58438 -0.0789,1.91667 -0.3323,0.33229 -0.56864,-0.25834 -0.52522,-1.3125 z M 766.5,602 c 0.99549,-1.1 2.03498,-2 2.30998,-2 0.275,0 -0.31449,0.9 -1.30998,2 -0.99549,1.1 -2.03498,2 -2.30998,2 -0.275,0 0.31449,-0.9 1.30998,-2 z m 323.6579,-3 c 0,-1.375 0.227,-1.9375 0.5044,-1.25 0.2774,0.6875 0.2774,1.8125 0,2.5 -0.2774,0.6875 -0.5044,0.125 -0.5044,-1.25 z M 99.078947,598.41667 c 0.04798,-1.16495 0.284941,-1.4019 0.604167,-0.60417 0.288871,0.72187 0.253344,1.58438 -0.07895,1.91667 -0.332292,0.33229 -0.568641,-0.25834 -0.52522,-1.3125 z M 462.99397,584.79574 c -0.27169,-5.88734 -0.1393,-10.34766 0.29419,-9.91183 0.43349,0.43583 0.65578,5.25274 0.49397,10.70425 l -0.2942,9.91184 z m -364.915023,7.62093 c 0.04798,-1.16495 0.284941,-1.4019 0.604167,-0.60417 0.288871,0.72187 0.253344,1.58438 -0.07895,1.91667 -0.332292,0.33229 -0.568641,-0.25834 -0.52522,-1.3125 z m 464.733553,0.90022 c 0.72187,-0.28887 1.58438,-0.25335 1.91667,0.0789 0.33229,0.33229 -0.25834,0.56864 -1.3125,0.52522 -1.16495,-0.048 -1.4019,-0.28494 -0.60417,-0.60416 z m 153,0 c 0.72187,-0.28887 1.58438,-0.25335 1.91667,0.0789 0.33229,0.33229 -0.25834,0.56864 -1.3125,0.52522 -1.16495,-0.048 -1.4019,-0.28494 -0.60417,-0.60416 z m 69,0 c 0.72187,-0.28887 1.58438,-0.25335 1.91667,0.0789 0.33229,0.33229 -0.25834,0.56864 -1.3125,0.52522 -1.16495,-0.048 -1.4019,-0.28494 -0.60417,-0.60416 z m 5,0 c 0.72187,-0.28887 1.58438,-0.25335 1.91667,0.0789 0.33229,0.33229 -0.25834,0.56864 -1.3125,0.52522 -1.16495,-0.048 -1.4019,-0.28494 -0.60417,-0.60416 z m 56,0 c 0.72187,-0.28887 1.58438,-0.25335 1.91667,0.0789 0.33229,0.33229 -0.25834,0.56864 -1.3125,0.52522 -1.16495,-0.048 -1.4019,-0.28494 -0.60417,-0.60416 z m 5,0 c 0.72187,-0.28887 1.58438,-0.25335 1.91667,0.0789 0.33229,0.33229 -0.25834,0.56864 -1.3125,0.52522 -1.16495,-0.048 -1.4019,-0.28494 -0.60417,-0.60416 z M 1091.1579,592 c 0,-1.375 0.227,-1.9375 0.5044,-1.25 0.2774,0.6875 0.2774,1.8125 0,2.5 -0.2774,0.6875 -0.5044,0.125 -0.5044,-1.25 z m 1,-7 c 0,-1.375 0.227,-1.9375 0.5044,-1.25 0.2774,0.6875 0.2774,1.8125 0,2.5 -0.2774,0.6875 -0.5044,0.125 -0.5044,-1.25 z M 96.078947,581.41667 c 0.04798,-1.16495 0.284941,-1.4019 0.604167,-0.60417 0.288871,0.72187 0.253344,1.58438 -0.07895,1.91667 -0.332292,0.33229 -0.568641,-0.25834 -0.52522,-1.3125 z M 1093.1579,578 c 0,-1.375 0.227,-1.9375 0.5044,-1.25 0.2774,0.6875 0.2774,1.8125 0,2.5 -0.2774,0.6875 -0.5044,0.125 -0.5044,-1.25 z M 95.078947,575.41667 c 0.04798,-1.16495 0.284941,-1.4019 0.604167,-0.60417 0.288871,0.72187 0.253344,1.58438 -0.07895,1.91667 -0.332292,0.33229 -0.568641,-0.25834 -0.52522,-1.3125 z M 1094.1579,571 c 0,-1.375 0.227,-1.9375 0.5044,-1.25 0.2774,0.6875 0.2774,1.8125 0,2.5 -0.2774,0.6875 -0.5044,0.125 -0.5044,-1.25 z M 94.157895,570 c 0,-1.375 0.226973,-1.9375 0.504386,-1.25 0.277412,0.6875 0.277412,1.8125 0,2.5 -0.277413,0.6875 -0.504386,0.125 -0.504386,-1.25 z M 1095.1579,564 c 0,-1.375 0.227,-1.9375 0.5044,-1.25 0.2774,0.6875 0.2774,1.8125 0,2.5 -0.2774,0.6875 -0.5044,0.125 -0.5044,-1.25 z m 1,-7 c 0,-1.375 0.227,-1.9375 0.5044,-1.25 0.2774,0.6875 0.2774,1.8125 0,2.5 -0.2774,0.6875 -0.5044,0.125 -0.5044,-1.25 z M 94.078947,553.41667 c 0.04798,-1.16495 0.284941,-1.4019 0.604167,-0.60417 0.288871,0.72187 0.253344,1.58438 -0.07895,1.91667 -0.332292,0.33229 -0.568641,-0.25834 -0.52522,-1.3125 z M 1097.1579,550 c 0,-1.375 0.227,-1.9375 0.5044,-1.25 0.2774,0.6875 0.2774,1.8125 0,2.5 -0.2774,0.6875 -0.5044,0.125 -0.5044,-1.25 z m 0.921,-7.58333 c 0.048,-1.16495 0.285,-1.4019 0.6042,-0.60417 0.2889,0.72187 0.2534,1.58438 -0.079,1.91667 -0.3323,0.33229 -0.5687,-0.25834 -0.5253,-1.3125 z m 1,-7 c 0.048,-1.16495 0.285,-1.4019 0.6042,-0.60417 0.2889,0.72187 0.2534,1.58438 -0.079,1.91667 -0.3323,0.33229 -0.5687,-0.25834 -0.5253,-1.3125 z m 1,-7 c 0.048,-1.16495 0.285,-1.4019 0.6042,-0.60417 0.2889,0.72187 0.2534,1.58438 -0.079,1.91667 -0.3323,0.33229 -0.5687,-0.25834 -0.5253,-1.3125 z M 106,528.68709 c 0,-0.1721 1.4625,-1.6346 3.25,-3.25 l 3.25,-2.93709 -2.93709,3.25 C 106.82513,528.77946 106,529.45965 106,528.68709 Z m 995.0789,-7.27042 c 0.048,-1.16495 0.285,-1.4019 0.6042,-0.60417 0.2889,0.72187 0.2534,1.58438 -0.079,1.91667 -0.3323,0.33229 -0.5687,-0.25834 -0.5253,-1.3125 z m 1,-7 c 0.048,-1.16495 0.285,-1.4019 0.6042,-0.60417 0.2889,0.72187 0.2534,1.58438 -0.079,1.91667 -0.3323,0.33229 -0.5687,-0.25834 -0.5253,-1.3125 z m 1,-7 c 0.048,-1.16495 0.285,-1.4019 0.6042,-0.60417 0.2889,0.72187 0.2534,1.58438 -0.079,1.91667 -0.3323,0.33229 -0.5687,-0.25834 -0.5253,-1.3125 z M 123,503.62244 c 0,-0.20765 0.7875,-0.99515 1.75,-1.75 1.58606,-1.24387 1.62143,-1.2085 0.37756,0.37756 C 123.82119,503.91575 123,504.44548 123,503.62244 Z m 981.0789,-3.20577 c 0.048,-1.16495 0.285,-1.4019 0.6042,-0.60417 0.2889,0.72187 0.2534,1.58438 -0.079,1.91667 -0.3323,0.33229 -0.5687,-0.25834 -0.5253,-1.3125 z M 130,496.62244 c 0,-0.20765 0.7875,-0.99515 1.75,-1.75 1.58606,-1.24387 1.62143,-1.2085 0.37756,0.37756 C 130.82119,496.91575 130,497.44548 130,496.62244 Z m 975.0789,-3.20577 c 0.048,-1.16495 0.285,-1.4019 0.6042,-0.60417 0.2889,0.72187 0.2534,1.58438 -0.079,1.91667 -0.3323,0.33229 -0.5687,-0.25834 -0.5253,-1.3125 z m 1,-7 c 0.048,-1.16495 0.285,-1.4019 0.6042,-0.60417 0.2889,0.72187 0.2534,1.58438 -0.079,1.91667 -0.3323,0.33229 -0.5687,-0.25834 -0.5253,-1.3125 z m 1.116,-7.91667 c 0.02,-1.65 0.2445,-2.20394 0.4981,-1.23097 0.2535,0.97297 0.2369,2.32297 -0.037,3 -0.2739,0.67703 -0.4813,-0.11903 -0.461,-1.76903 z M 151.15789,477 c 0,-1.375 0.22698,-1.9375 0.50439,-1.25 0.27741,0.6875 0.27741,1.8125 0,2.5 -0.27741,0.6875 -0.50439,0.125 -0.50439,-1.25 z m 0.92106,-7.58333 c 0.048,-1.16495 0.28494,-1.4019 0.60416,-0.60417 0.28887,0.72187 0.25335,1.58438 -0.0789,1.91667 -0.3323,0.33229 -0.56864,-0.25834 -0.52522,-1.3125 z m 954.99995,-3 c 0.048,-1.16495 0.285,-1.4019 0.6042,-0.60417 0.2889,0.72187 0.2534,1.58438 -0.079,1.91667 -0.3323,0.33229 -0.5687,-0.25834 -0.5253,-1.3125 z m -953.99995,-3 c 0.048,-1.16495 0.28494,-1.4019 0.60416,-0.60417 0.28887,0.72187 0.25335,1.58438 -0.0789,1.91667 -0.3323,0.33229 -0.56864,-0.25834 -0.52522,-1.3125 z M 595.75,452.29427 c 1.2375,-0.23836 3.2625,-0.23836 4.5,0 1.2375,0.23835 0.225,0.43337 -2.25,0.43337 -2.475,0 -3.4875,-0.19502 -2.25,-0.43337 z m 15.01166,-1.00153 c 1.24391,-0.23919 3.04391,-0.23011 4,0.0202 0.95609,0.25029 -0.0617,0.446 -2.26166,0.4349 -2.2,-0.0111 -2.98225,-0.21589 -1.73834,-0.45508 z m 14,-1 c 1.24391,-0.23919 3.04391,-0.23011 4,0.0202 0.95609,0.25029 -0.0617,0.446 -2.26166,0.4349 -2.2,-0.0111 -2.98225,-0.21589 -1.73834,-0.45508 z m 14,-1 c 1.24391,-0.23919 3.04391,-0.23011 4,0.0202 0.95609,0.25029 -0.0617,0.446 -2.26166,0.4349 -2.2,-0.0111 -2.98225,-0.21589 -1.73834,-0.45508 z M 651.75,448.29427 c 1.2375,-0.23836 3.2625,-0.23836 4.5,0 1.2375,0.23835 0.225,0.43337 -2.25,0.43337 -2.475,0 -3.4875,-0.19502 -2.25,-0.43337 z m 14,-1 c 1.2375,-0.23836 3.2625,-0.23836 4.5,0 1.2375,0.23835 0.225,0.43337 -2.25,0.43337 -2.475,0 -3.4875,-0.19502 -2.25,-0.43337 z m 14.01166,-1.00153 c 1.24391,-0.23919 3.04391,-0.23011 4,0.0202 0.95609,0.25029 -0.0617,0.446 -2.26166,0.4349 -2.2,-0.0111 -2.98225,-0.21589 -1.73834,-0.45508 z m 14,-1 c 1.24391,-0.23919 3.04391,-0.23011 4,0.0202 0.95609,0.25029 -0.0617,0.446 -2.26166,0.4349 -2.2,-0.0111 -2.98225,-0.21589 -1.73834,-0.45508 z m 14,-1 c 1.24391,-0.23919 3.04391,-0.23011 4,0.0202 0.95609,0.25029 -0.0617,0.446 -2.26166,0.4349 -2.2,-0.0111 -2.98225,-0.21589 -1.73834,-0.45508 z m 14,-1 c 1.24391,-0.23919 3.04391,-0.23011 4,0.0202 0.95609,0.25029 -0.0617,0.446 -2.26166,0.4349 -2.2,-0.0111 -2.98225,-0.21589 -1.73834,-0.45508 z m 14,-1 c 1.24391,-0.23919 3.04391,-0.23011 4,0.0202 0.95609,0.25029 -0.0617,0.446 -2.26166,0.4349 -2.2,-0.0111 -2.98225,-0.21589 -1.73834,-0.45508 z m 14,-1 c 1.24391,-0.23919 3.04391,-0.23011 4,0.0202 0.95609,0.25029 -0.0617,0.446 -2.26166,0.4349 -2.2,-0.0111 -2.98225,-0.21589 -1.73834,-0.45508 z m 16,-1 c 1.24391,-0.23919 3.04391,-0.23011 4,0.0202 0.95609,0.25029 -0.0617,0.446 -2.26166,0.4349 -2.2,-0.0111 -2.98225,-0.21589 -1.73834,-0.45508 z m 14,-1 c 1.24391,-0.23919 3.04391,-0.23011 4,0.0202 0.95609,0.25029 -0.0617,0.446 -2.26166,0.4349 -2.2,-0.0111 -2.98225,-0.21589 -1.73834,-0.45508 z m 14,-1 c 1.24391,-0.23919 3.04391,-0.23011 4,0.0202 0.95609,0.25029 -0.0617,0.446 -2.26166,0.4349 -2.2,-0.0111 -2.98225,-0.21589 -1.73834,-0.45508 z M 1091.9462,435.25 1088.5,431.5 l 3.75,3.44617 c 3.4904,3.20761 4.2098,4.05383 3.4462,4.05383 -0.1671,0 -1.8546,-1.6875 -3.75,-3.75 z m -284.18454,2.04274 c 1.24391,-0.23919 3.04391,-0.23011 4,0.0202 0.95609,0.25029 -0.0617,0.446 -2.26166,0.4349 -2.2,-0.0111 -2.98225,-0.21589 -1.73834,-0.45508 z m 14,-1 c 1.24391,-0.23919 3.04391,-0.23011 4,0.0202 0.95609,0.25029 -0.0617,0.446 -2.26166,0.4349 -2.2,-0.0111 -2.98225,-0.21589 -1.73834,-0.45508 z m 14,-1 c 1.24391,-0.23919 3.04391,-0.23011 4,0.0202 0.95609,0.25029 -0.0617,0.446 -2.26166,0.4349 -2.2,-0.0111 -2.98225,-0.21589 -1.73834,-0.45508 z m 14,-1 c 1.24391,-0.23919 3.04391,-0.23011 4,0.0202 0.95609,0.25029 -0.0617,0.446 -2.26166,0.4349 -2.2,-0.0111 -2.98225,-0.21589 -1.73834,-0.45508 z m 14,-1 c 1.24391,-0.23919 3.04391,-0.23011 4,0.0202 0.95609,0.25029 -0.0617,0.446 -2.26166,0.4349 -2.2,-0.0111 -2.98225,-0.21589 -1.73834,-0.45508 z m 14,-1 c 1.24391,-0.23919 3.04391,-0.23011 4,0.0202 0.95609,0.25029 -0.0617,0.446 -2.26166,0.4349 -2.2,-0.0111 -2.98225,-0.21589 -1.73834,-0.45508 z m 14,-1 c 1.24391,-0.23919 3.04391,-0.23011 4,0.0202 0.95609,0.25029 -0.0617,0.446 -2.26166,0.4349 -2.2,-0.0111 -2.98225,-0.21589 -1.73834,-0.45508 z m 14,-1 c 1.24391,-0.23919 3.04391,-0.23011 4,0.0202 0.95609,0.25029 -0.0617,0.446 -2.26166,0.4349 -2.2,-0.0111 -2.98225,-0.21589 -1.73834,-0.45508 z m 14,-1 c 1.24391,-0.23919 3.04391,-0.23011 4,0.0202 0.95609,0.25029 -0.0617,0.446 -2.26166,0.4349 -2.2,-0.0111 -2.98225,-0.21589 -1.73834,-0.45508 z m 14,-1 c 1.24391,-0.23919 3.04391,-0.23011 4,0.0202 0.95609,0.25029 -0.0617,0.446 -2.26166,0.4349 -2.2,-0.0111 -2.98225,-0.21589 -1.73834,-0.45508 z m 14,-1 c 1.24391,-0.23919 3.04391,-0.23011 4,0.0202 0.95609,0.25029 -0.0617,0.446 -2.26166,0.4349 -2.2,-0.0111 -2.98225,-0.21589 -1.73834,-0.45508 z m 14,-1 c 1.24391,-0.23919 3.04391,-0.23011 4,0.0202 0.95609,0.25029 -0.0617,0.446 -2.26166,0.4349 -2.2,-0.0111 -2.98225,-0.21589 -1.73834,-0.45508 z m 14,-1 c 1.24391,-0.23919 3.04391,-0.23011 4,0.0202 0.95609,0.25029 -0.0617,0.446 -2.26166,0.4349 -2.2,-0.0111 -2.98225,-0.21589 -1.73834,-0.45508 z m 14,-1 c 1.24391,-0.23919 3.04391,-0.23011 4,0.0202 0.95609,0.25029 -0.0617,0.446 -2.26166,0.4349 -2.2,-0.0111 -2.98225,-0.21589 -1.73834,-0.45508 z m 14.00004,-1 c 1.2439,-0.23919 3.0439,-0.23011 4,0.0202 0.956,0.25029 -0.062,0.446 -2.2617,0.4349 -2.2,-0.0111 -2.9823,-0.21589 -1.7383,-0.45508 z m 16,-1 c 1.2439,-0.23919 3.0439,-0.23011 4,0.0202 0.956,0.25029 -0.062,0.446 -2.2617,0.4349 -2.2,-0.0111 -2.9823,-0.21589 -1.7383,-0.45508 z m 14,-1 c 1.2439,-0.23919 3.0439,-0.23011 4,0.0202 0.956,0.25029 -0.062,0.446 -2.2617,0.4349 -2.2,-0.0111 -2.9823,-0.21589 -1.7383,-0.45508 z m 14,-1 c 1.2439,-0.23919 3.0439,-0.23011 4,0.0202 0.956,0.25029 -0.062,0.446 -2.2617,0.4349 -2.2,-0.0111 -2.9823,-0.21589 -1.7383,-0.45508 z m 11.5073,0.0143 c 0.973,-0.25354 2.323,-0.23687 3,0.0371 0.6771,0.27393 -0.119,0.48137 -1.769,0.46099 -1.65,-0.0204 -2.2039,-0.2445 -1.231,-0.49804 z M 190,373.62244 c 0,-0.20765 0.7875,-0.99515 1.75,-1.75 1.58606,-1.24387 1.62143,-1.2085 0.37756,0.37756 C 190.82119,373.91575 190,374.44548 190,373.62244 Z m 3,-4 c 0,-0.20765 0.7875,-0.99515 1.75,-1.75 1.58606,-1.24387 1.62143,-1.2085 0.37756,0.37756 C 193.82119,369.91575 193,370.44548 193,369.62244 Z M 551.87244,364.25 c -1.24387,-1.58606 -1.2085,-1.62143 0.37756,-0.37756 0.9625,0.75485 1.75,1.54235 1.75,1.75 0,0.82304 -0.82119,0.29331 -2.12756,-1.37244 z M 200.5,360 c 0.99549,-1.1 2.03498,-2 2.30998,-2 0.275,0 -0.31449,0.9 -1.30998,2 -0.99549,1.1 -2.03498,2 -2.30998,2 -0.275,0 0.31449,-0.9 1.30998,-2 z m 346.37244,-1.75 c -1.24387,-1.58606 -1.2085,-1.62143 0.37756,-0.37756 1.66575,1.30637 2.19548,2.12756 1.37244,2.12756 -0.20765,0 -0.99515,-0.7875 -1.75,-1.75 z M 208,351.5 c 1.29175,-1.375 2.57363,-2.5 2.84863,-2.5 0.275,0 -0.55688,1.125 -1.84863,2.5 -1.29175,1.375 -2.57363,2.5 -2.84863,2.5 -0.275,0 0.55688,-1.125 1.84863,-2.5 z m 332.43709,-0.75 -2.93709,-3.25 3.25,2.93709 c 1.7875,1.6154 3.25,3.0779 3.25,3.25 0,0.77256 -0.82513,0.0924 -3.56291,-2.93709 z m -14.49092,-14.5 -3.44617,-3.75 3.75,3.44617 c 3.49042,3.20761 4.20979,4.05383 3.44617,4.05383 -0.16711,0 -1.85461,-1.6875 -3.75,-3.75 z M 225,334.5 c 1.29175,-1.375 2.57363,-2.5 2.84863,-2.5 0.275,0 -0.55688,1.125 -1.84863,2.5 -1.29175,1.375 -2.57363,2.5 -2.84863,2.5 -0.275,0 0.55688,-1.125 1.84863,-2.5 z m 292.87244,-5.25 c -1.24387,-1.58606 -1.2085,-1.62143 0.37756,-0.37756 1.66575,1.30637 2.19548,2.12756 1.37244,2.12756 -0.20765,0 -0.99515,-0.7875 -1.75,-1.75 z M 231,329.62244 c 0,-0.20765 0.7875,-0.99515 1.75,-1.75 1.58606,-1.24387 1.62143,-1.2085 0.37756,0.37756 C 231.82119,329.91575 231,330.44548 231,329.62244 Z M 512.87244,325.25 c -1.24387,-1.58606 -1.2085,-1.62143 0.37756,-0.37756 1.66575,1.30637 2.19548,2.12756 1.37244,2.12756 -0.20765,0 -0.99515,-0.7875 -1.75,-1.75 z M 272.73333,301.87591 c 0.67834,-0.68342 1.48524,-0.99067 1.79313,-0.68278 0.30789,0.30789 -0.24711,0.86705 -1.23333,1.24258 -1.4252,0.54268 -1.54006,0.42782 -0.5598,-0.5598 z m 55.07917,-19.55902 c 0.72187,-0.28887 1.58438,-0.25335 1.91667,0.0789 0.33229,0.33229 -0.25834,0.56864 -1.3125,0.52522 -1.16495,-0.048 -1.4019,-0.28494 -0.60417,-0.60416 z m 5,-1 c 0.72187,-0.28887 1.58438,-0.25335 1.91667,0.0789 0.33229,0.33229 -0.25834,0.56864 -1.3125,0.52522 -1.16495,-0.048 -1.4019,-0.28494 -0.60417,-0.60416 z m 83,0 c 0.72187,-0.28887 1.58438,-0.25335 1.91667,0.0789 0.33229,0.33229 -0.25834,0.56864 -1.3125,0.52522 -1.16495,-0.048 -1.4019,-0.28494 -0.60417,-0.60416 z m -78,-1 c 0.72187,-0.28887 1.58438,-0.25335 1.91667,0.0789 0.33229,0.33229 -0.25834,0.56864 -1.3125,0.52522 -1.16495,-0.048 -1.4019,-0.28494 -0.60417,-0.60416 z m 71.9375,0.0208 c 0.6875,-0.27741 1.8125,-0.27741 2.5,0 0.6875,0.27741 0.125,0.50439 -1.25,0.50439 -1.375,0 -1.9375,-0.22698 -1.25,-0.50439 z m -66,-1 c 0.6875,-0.27741 1.8125,-0.27741 2.5,0 0.6875,0.27741 0.125,0.50439 -1.25,0.50439 -1.375,0 -1.9375,-0.22698 -1.25,-0.50439 z m 59,0 c 0.6875,-0.27741 1.8125,-0.27741 2.5,0 0.6875,0.27741 0.125,0.50439 -1.25,0.50439 -1.375,0 -1.9375,-0.22698 -1.25,-0.50439 z m -50.5,-1.02705 c 0.9625,-0.25152 2.5375,-0.25152 3.5,0 0.9625,0.25153 0.175,0.45733 -1.75,0.45733 -1.925,0 -2.7125,-0.2058 -1.75,-0.45733 z m 40,0 c 0.9625,-0.25152 2.5375,-0.25152 3.5,0 0.9625,0.25153 0.175,0.45733 -1.75,0.45733 -1.925,0 -2.7125,-0.2058 -1.75,-0.45733 z m -19.5,-1.0164 c 1.2375,-0.23836 3.2625,-0.23836 4.5,0 1.2375,0.23835 0.225,0.43337 -2.25,0.43337 -2.475,0 -3.4875,-0.19502 -2.25,-0.43337 z"
         style="display:inline;fill:#3d4960" />
      <path
         id="path26"
         d="m 981,922.099 c -6.3364,-2.10557 -197.91308,-72.34209 -220,-80.65717 -3.07824,-1.15887 -0.9395,-1.3182 17.74839,-1.32223 l 21.24839,-0.005 21.25161,7.85291 c 11.68839,4.31911 40.82661,15.04824 64.75161,23.84253 23.925,8.79429 57.225,21.06796 74,27.27484 30.14843,11.15513 30.59798,11.28476 39,11.24561 10.4518,-0.0487 17.399,-2.81784 25.0695,-9.99266 7.5287,-7.04229 10.6305,-13.95879 12.4844,-27.83825 0.3673,-2.75 0.804,-5.71918 0.9703,-6.59818 0.1664,-0.879 0.6055,-3.98482 0.9758,-6.90182 0.3703,-2.917 0.8203,-6.067 1,-7 0.1797,-0.933 0.6297,-4.083 1,-7 0.3703,-2.917 0.8203,-6.067 1,-7 0.1797,-0.933 0.6297,-4.083 1,-7 0.3703,-2.917 0.8203,-6.067 1,-7 0.1797,-0.933 0.6297,-4.083 1,-7 0.3703,-2.917 0.8203,-6.067 1,-7 0.1797,-0.933 0.6297,-4.083 1,-7 0.3703,-2.917 0.8434,-6.18705 1.0514,-7.26676 0.2079,-1.07972 0.6503,-4.4989 0.983,-7.59818 0.3328,-3.09928 0.7761,-6.31006 0.9852,-7.13506 0.2091,-0.825 0.6118,-3.3 0.8949,-5.5 0.646,-5.01926 8.556,-61.11367 9.0954,-64.5 0.219,-1.375 0.6937,-4.75 1.055,-7.5 0.3613,-2.75 0.793,-5.71918 0.9593,-6.59818 0.1664,-0.879 0.6055,-3.98482 0.9758,-6.90182 0.3703,-2.917 0.8203,-6.067 1,-7 0.1797,-0.933 0.6297,-4.083 1,-7 0.3703,-2.917 0.8203,-6.067 1,-7 0.1797,-0.933 0.6297,-4.083 1,-7 0.3703,-2.917 0.8203,-6.067 1,-7 0.1797,-0.933 0.6297,-4.083 1,-7 0.3703,-2.917 0.8203,-6.067 1,-7 0.1797,-0.933 0.6297,-4.083 1,-7 0.3703,-2.917 0.8203,-6.067 1,-7 0.1797,-0.933 0.6266,-4.12718 0.9931,-7.09818 0.3666,-2.971 2.853,-20.70182 5.5255,-39.40182 2.6725,-18.7 5.1615,-36.25 5.5311,-39 0.3696,-2.75 0.8082,-5.71918 0.9745,-6.59818 0.1664,-0.879 0.6055,-3.98482 0.9758,-6.90182 0.3703,-2.917 0.8203,-6.067 1,-7 0.1797,-0.933 0.6297,-4.083 1,-7 0.3703,-2.917 0.8203,-6.067 1,-7 0.1797,-0.933 0.6297,-4.083 1,-7 0.3703,-2.917 0.8203,-6.067 1,-7 1.3306,-6.90908 1.9659,-13.71591 1.9653,-21.05697 -6e-4,-7.59236 -0.3586,-9.28329 -3.1758,-15 -4.1301,-8.38111 -10.2165,-14.47746 -18.2895,-18.3196 -5.8404,-2.77956 -7.4641,-3.09493 -16,-3.10766 -8.224,-0.0123 -23.3163,0.83022 -35,1.95378 -1.925,0.18512 -8.8653,0.64602 -15.4229,1.02423 -6.5576,0.37821 -12.6326,0.81933 -13.5,0.98028 -0.86741,0.16094 -6.9771,0.61344 -13.5771,1.00555 -6.6,0.39212 -13.575,0.84058 -15.5,0.99659 -1.925,0.15601 -8,0.58611 -13.5,0.95577 -5.5,0.36966 -12.025,0.84541 -14.5,1.05723 -2.475,0.21182 -8.55,0.65288 -13.5,0.98014 -4.95,0.32726 -11.475,0.7861 -14.5,1.01964 -3.025,0.23355 -8.9875,0.66907 -13.25,0.96783 -4.2625,0.29875 -11.2375,0.78763 -15.5,1.08638 -4.2625,0.29876 -10.225,0.73428 -13.25,0.96783 -3.025,0.23354 -9.55,0.69238 -14.5,1.01964 -4.95,0.32726 -11.025,0.76832 -13.5,0.98014 -2.475,0.21182 -9,0.67384 -14.5,1.0267 -5.5,0.35287 -11.575,0.79066 -13.5,0.97287 -1.925,0.18221 -8.225,0.6333 -14,1.00242 -5.775,0.36913 -12.075,0.81523 -14,0.99135 -1.925,0.17611 -8.45,0.61296 -14.5,0.97078 -6.05,0.35782 -13.025,0.8171 -15.5,1.02062 -4.6544,0.38275 -16.68036,1.2555 -28,2.03203 -11.49197,0.78835 -21.33029,1.47847 -28.25,1.98162 -9.6227,0.69969 -20.18288,1.45873 -28,2.01257 -3.7125,0.26303 -10.0125,0.71303 -14,1 -3.9875,0.28697 -10.2875,0.73697 -14,1 -3.7125,0.26303 -9.7875,0.69345 -13.5,0.95648 -3.7125,0.26303 -10.125,0.72282 -14.25,1.02176 -9.54846,0.69198 -19.72467,1.41885 -28,2 -3.575,0.25106 -9.7625,0.69127 -13.75,0.97824 -3.9875,0.28697 -10.2875,0.73697 -14,1 -3.7125,0.26303 -10.125,0.72282 -14.25,1.02176 -4.125,0.29894 -10.65,0.76853 -14.5,1.04353 -3.85,0.275 -9.925,0.7252 -13.5,1.00044 l -6.5,0.50045 -3.28451,-10.27221 C 495.18325,441.77913 483.83141,422.90899 468.12796,407.10862 446.18664,385.03188 418.33948,371.70983 387,368.29709 340.13783,363.19399 292.16035,384.53898 264.04337,423 c -10.67264,14.59904 -21.28177,38.83663 -23.49521,53.67712 -0.32017,2.14662 -0.76266,4.84041 -0.98332,5.98619 -0.22066,1.14579 -0.67428,3.80153 -1.00804,5.90166 -0.33376,2.10012 -0.72579,3.93736 -0.87118,4.08274 -0.27475,0.27475 -7.65102,0.91725 -20.93562,1.82356 -15.32905,1.04579 -23.33451,1.61642 -28.25,2.01366 -2.75,0.22223 -9.5,0.68599 -15,1.03056 -17.29916,1.0838 -23.77529,2.82143 -31.02734,8.32506 -6.29429,4.77678 -6.74141,6.20108 -1.79457,5.71662 2.10205,-0.20586 8.77191,-0.66527 14.82191,-1.02092 6.05,-0.35565 13.025,-0.8173 15.5,-1.02589 2.475,-0.20859 9,-0.64533 14.5,-0.97053 5.5,-0.3252 12.925,-0.79232 16.5,-1.03805 3.575,-0.24573 10.2125,-0.68416 14.75,-0.97428 17.34718,-1.10917 24.93535,-1.61821 30.25,-2.02929 3.025,-0.23397 10,-0.71262 15.5,-1.06367 5.5,-0.35104 10.20182,-0.83174 10.44849,-1.06822 0.24667,-0.23649 0.5458,-5.47815 0.66472,-11.64814 0.35302,-18.31497 5.85771,-35.20989 16.85978,-51.74574 14.95782,-22.48127 37.48225,-37.55839 64.52701,-43.19227 13.21348,-2.75259 33.55918,-2.06513 46.33238,1.56551 27.08831,7.69957 48.84731,25.27195 62.98138,50.86322 3.09318,5.60054 8.24136,19.85176 9.16411,25.36814 1.96445,11.7439 2.1834,13.42296 1.75034,13.42296 -0.2602,0 0.083,0.67005 0.76265,1.48899 0.67967,0.81894 1.52242,1.31182 1.8728,1.09527 0.35037,-0.21654 6.03688,-0.71033 12.63669,-1.09732 6.59981,-0.38698 14.241,-0.84983 16.98043,-1.02854 2.73943,-0.17872 9.93943,-0.62249 16,-0.98618 6.06057,-0.36368 12.59422,-0.8049 14.51922,-0.9805 1.925,-0.17559 8.9,-0.62651 15.5,-1.00204 6.6,-0.37552 13.575,-0.82552 15.5,-1 1.925,-0.17447 8.9,-0.62447 15.5,-1 6.6,-0.37552 13.575,-0.82684 15.5,-1.00292 1.925,-0.17608 8.675,-0.6244 15,-0.99627 6.325,-0.37186 13.075,-0.82263 15,-1.00171 1.925,-0.17908 8.9,-0.62908 15.5,-1 6.6,-0.37092 13.575,-0.82201 15.5,-1.00242 1.925,-0.18041 8.45,-0.61876 14.5,-0.97412 6.05,-0.35536 12.8,-0.80397 15,-0.99692 2.2,-0.19294 9.4,-0.65458 16,-1.02587 6.6,-0.37129 13.575,-0.82159 15.5,-1.00067 1.925,-0.17908 8.675,-0.62984 15,-1.0017 6.325,-0.37185 13.075,-0.8195 15,-0.99478 1.925,-0.17527 8.225,-0.61651 14,-0.98052 5.775,-0.36401 12.525,-0.82824 15,-1.03161 2.475,-0.20338 9.45,-0.63766 15.5,-0.96507 6.05,-0.32741 13.025,-0.79117 15.5,-1.03058 2.475,-0.2394 9,-0.69258 14.5,-1.00705 5.5,-0.31447 12.25,-0.74915 15,-0.96596 2.75,-0.2168 9.95,-0.67595 16,-1.02031 6.05,-0.34437 13.025,-0.79735 15.5,-1.00662 2.475,-0.20928 9,-0.65138 14.5,-0.98245 5.5,-0.33107 12.475,-0.7881 15.5,-1.01564 3.025,-0.22753 10,-0.67753 15.5,-1 5.5,-0.32246 12.475,-0.77436 15.5,-1.00422 3.025,-0.22985 9.55,-0.67382 14.5,-0.98659 4.95,-0.31277 11.925,-0.76758 15.5,-1.01068 3.575,-0.2431 10.55,-0.6931 15.5,-1 4.95,-0.3069 12.15,-0.80659 16,-1.11044 23.3176,-1.84026 32.4262,-1.13411 42.4582,3.2916 11.1944,4.93851 21.8296,15.70251 26.5128,26.83384 3.9172,9.31079 4.9402,22.39797 2.4846,31.78497 -16.2759,62.21657 -46.7836,172.75116 -49.0075,177.5622 -1.6137,3.49095 -4.3327,8.11322 -6.0423,10.2717 -3.5407,4.47061 -13.78163,12.08445 -19.53154,14.52124 -4.33071,1.83534 -5.3571,2.10669 -24.37426,6.444 -7.425,1.69345 -14.2875,3.26729 -15.25,3.49744 -0.9625,0.23015 -2.5375,0.60675 -3.5,0.8369 -0.9625,0.23015 -8.05,1.84184 -15.75,3.58155 -7.7,1.73971 -14.7875,3.3514 -15.75,3.58155 -0.9625,0.23015 -2.5375,0.60675 -3.5,0.8369 -0.9625,0.23015 -8.05,1.84184 -15.75,3.58155 -16.53744,3.7364 -13.48411,3.03806 -31.7123,7.25305 l -14.7123,3.402 -1.05083,-3.0144 c -0.57795,-1.65792 -0.70741,-3.30911 -0.2877,-3.66932 0.41972,-0.3602 30.01313,-7.31245 65.76313,-15.44945 35.75,-8.13699 67.58465,-15.72189 70.74368,-16.85533 10.82449,-3.88377 21.65502,-14.43449 25.57662,-24.91575 1.1187,-2.9901 12.4168,-43.92178 25.1069,-90.95928 19.9941,-74.11123 23.0728,-86.4789 23.0728,-92.68867 0,-16.59966 -9.5275,-31.83465 -24.4834,-39.15038 -9.9722,-4.87792 -14.3092,-5.0081 -62.5166,-1.87638 -92.58614,6.01471 -139.86954,9.10456 -175,11.43581 -115.76283,7.682 -150.0946,9.93758 -227.5,14.94662 -70.9578,4.5918 -68.85664,4.45429 -85,5.56269 -7.7,0.52868 -14.75168,0.96518 -15.67041,0.97001 -1.33337,0.007 -1.80013,-1.35315 -2.31338,-6.74122 -3.02212,-31.72627 -17.21685,-56.74862 -41.57673,-73.2911 -29.64133,-20.12904 -69.99256,-21.10541 -100.86757,-2.44066 -16.00903,9.67788 -27.61146,22.51481 -36.13679,39.98176 -6.72762,13.78372 -9.16147,24.61443 -9.05858,40.31089 0.0444,6.77099 0.33372,12.7203 0.64298,13.22069 0.76782,1.24236 -2.21894,1.74123 -14.51952,2.42517 -5.775,0.32111 -20.175,1.24374 -32,2.05031 -11.825,0.80656 -38.66891,2.5986 -59.65312,3.98232 -30.19499,1.99108 -39.51579,2.93673 -44.68605,4.53366 -10.72003,3.31108 -20.59577,12.33949 -25.90281,23.68036 -5.93654,12.6861 -7.059373,4.27941 22.67877,169.7966 25.22354,140.38973 26.76712,148.36105 30.01877,155.02158 7.00538,14.34951 20.48249,23.28767 36.54444,24.23667 6.58188,0.38888 10.98886,-0.35544 36,-6.08028 15.675,-3.58787 69,-15.79439 118.5,-27.12558 l 90,-20.60218 14.22747,0.2749 14.22747,0.27489 -62.72747,14.33997 C 369.72736,862.72695 310.9,876.16996 273.5,884.71332 c -37.4,8.54336 -71.159,15.75541 -75.01999,16.02678 -21.3192,1.4984 -43.46313,-13.56282 -49.81176,-33.87953 C 146.51693,859.97597 95.079373,573.79534 94.322542,564.5 93.241234,551.21946 98.29124,537.96897 108.598,527.04326 c 3.48178,-3.69087 7.25064,-8.85724 8.37523,-11.48082 3.14282,-7.33189 9.74355,-16.10072 15.41132,-20.47337 4.85231,-3.74353 14.89642,-9.05812 17.15908,-9.0793 0.57914,-0.005 1.8229,-5.76133 2.79452,-12.93261 11.59356,-85.56913 70.19157,-156.52619 151.47008,-183.41699 27.12828,-8.97532 49.49839,-12.24158 77.69177,-11.34375 34.00291,1.08283 61.1213,7.66062 91,22.07282 15.88472,7.6621 26.87165,14.44449 40,24.69257 39.39566,30.75251 66.56042,71.73935 79.61716,120.12828 1.15607,4.28445 2.38849,7.78991 2.73871,7.78991 0.35022,0 38.21342,-2.69464 84.14045,-5.9881 C 724.92334,443.71845 819.875,436.96613 890,432.00674 c 70.125,-4.95939 136.275,-9.63778 147,-10.39643 26.2575,-1.85735 34.5826,-0.56116 46.6869,7.26895 15.409,9.968 25.7636,30.44923 23.8224,47.12074 -1.8288,15.70678 -57.7662,408.09297 -58.6586,411.47477 -2.9414,11.14688 -12.836,24.13321 -23.0861,30.29982 C 1012.9003,925.514 996.14723,927.1324 981,922.099 Z M 204.07491,480.46992 c 11.17522,-0.84154 20.50576,-1.71726 20.73453,-1.94603 0.22877,-0.22877 0.99132,-3.17313 1.69455,-6.54302 0.94772,-4.54148 0.98325,-6.22921 0.13731,-6.52177 -5.06004,-1.74993 -40.74655,-10.09349 -41.04437,-9.59624 -0.50552,0.84403 -3.33839,15.38029 -4.16799,21.38714 -0.52993,3.83701 -0.36931,4.75 0.83568,4.75 0.82045,0 10.63508,-0.68854 21.81029,-1.53008 z M 545,456.49256 c 2.475,-0.24216 7.62492,-0.68947 11.44426,-0.99402 3.81935,-0.30456 7.16215,-0.77162 7.42845,-1.03792 C 564.57369,453.75964 555.93737,428 555.00138,428 c -1.32544,0 -41.44189,16.11341 -42.39456,17.02845 -0.51978,0.49926 0.0737,3.44325 1.41963,7.04227 l 2.31279,6.18436 12.08038,-0.66111 C 535.06383,457.23036 542.525,456.73473 545,456.49256 Z M 233.21455,448.75 c 0.61079,-1.7875 3.64628,-8.25362 6.74554,-14.36915 l 5.63503,-11.11915 -17.94917,-11.17966 c -9.87205,-6.14881 -18.52434,-10.95895 -19.22731,-10.68919 -2.51531,0.96521 -19.78183,38.78989 -18.27052,40.02408 0.35915,0.2933 39.69576,10.31972 41.1539,10.48962 0.44111,0.0514 1.30175,-1.36905 1.91253,-3.15655 z m 281.56581,-20.21661 c 4.5208,-1.90663 8.21964,-3.24626 8.21964,-2.97694 0,0.26931 1.10127,-0.23193 2.44728,-1.11386 1.346,-0.88194 2.70072,-1.55819 3.01048,-1.50279 0.30976,0.0554 1.79598,-0.51802 3.30272,-1.27426 1.50674,-0.75625 6.03084,-2.61572 10.05357,-4.13217 5.53339,-2.08592 7.17207,-3.12715 6.73089,-4.27686 -3.31774,-8.64588 -23.14607,-36.84047 -25.76635,-36.63805 -0.84336,0.0651 -9.17898,6.5717 -18.52358,14.45901 l -16.99019,14.34055 4.82691,6.29769 c 2.6548,3.46373 6.6965,9.44467 8.98156,13.29099 2.28505,3.84631 4.45452,6.9933 4.82103,6.9933 0.36652,0 4.36524,-1.55997 8.88604,-3.46661 z M 259.5,404.9083 c 2.75,-3.34256 7.3356,-8.28937 10.19022,-10.99292 l 5.19023,-4.91554 -13.69023,-16.43434 C 253.6606,363.52662 247.05,356.09789 246.5,356.05721 c -2.26122,-0.16723 -30.67593,31.18434 -29.35551,32.38961 0.19553,0.17848 5.98051,3.8368 12.85551,8.12961 6.875,4.2928 12.65,8.16925 12.83333,8.61433 0.18334,0.44508 0.87104,0.80924 1.52822,0.80924 0.65719,0 2.75719,1.10293 4.66667,2.45096 1.90948,1.34803 3.92178,2.46981 4.47178,2.49284 0.55,0.023 3.25,-2.69295 6,-6.0355 z m 237.86916,-26.89886 15.86915,-13.33391 -4.86915,-4.63932 c -6.1416,-5.85169 -17.06491,-14.52375 -24.94021,-19.80014 l -6.07105,-4.06755 -11.53162,18.66574 c -6.34239,10.26616 -11.80429,19.15513 -12.13755,19.75327 -0.33327,0.59814 2.34077,3.25115 5.9423,5.89558 3.60153,2.64443 9.08629,6.97385 12.18835,9.62095 5.49087,4.68554 5.69358,4.76561 7.66037,3.02609 1.11114,-0.98274 9.16137,-7.78706 17.88941,-15.12071 z m -206.04934,-0.86472 c 2.2991,-1.5704 7.78018,-4.79723 12.18018,-7.17073 4.4,-2.3735 8.12899,-4.40512 8.28665,-4.51471 0.15766,-0.10959 -0.67746,-2.62026 -1.85583,-5.57927 -1.17836,-2.959 -2.24984,-5.83001 -2.38106,-6.38001 -0.13121,-0.55 -1.13331,-3.025 -2.22687,-5.5 -1.09356,-2.475 -3.70267,-8.6625 -5.79802,-13.75 -2.09534,-5.0875 -4.20686,-9.25 -4.69226,-9.25 -2.59513,0 -27.84626,14.41157 -34.61678,19.75682 l -2.28416,1.80332 9.57652,11.46993 C 280.11209,373.12592 286.1097,380 286.67688,380 c 0.25452,0 2.34385,-1.28487 4.64294,-2.85528 z M 447.67535,356.75 c 3.84707,-6.1875 9.29193,-14.91451 12.09968,-19.39335 l 5.10501,-8.14336 -7.19002,-3.44158 c -8.83551,-4.22922 -19.21426,-8.20487 -27.91521,-10.69312 l -6.57552,-1.88043 -5.13949,20.65092 c -2.82672,11.35801 -5.35263,21.36198 -5.61312,22.23106 -0.36321,1.21176 1.36508,2.20275 7.41338,4.25078 4.33786,1.46886 10.30642,3.76938 13.26348,5.11226 2.95705,1.34288 5.86711,2.46753 6.4668,2.49921 0.59968,0.0317 4.23794,-5.00489 8.08501,-11.19239 z m -111.4174,0.73846 c 5.1899,-1.38135 11.30268,-2.61885 13.58394,-2.75 4.89375,-0.28135 4.82241,-0.0611 3.80173,-11.73846 -0.31248,-3.575 -0.83129,-11 -1.15292,-16.5 -0.32162,-5.5 -0.83423,-11.72345 -1.13913,-13.82989 l -0.55436,-3.82989 -5.14861,0.68742 c -5.68345,0.75884 -29.55547,6.63344 -33.90326,8.34316 l -2.75465,1.08324 1.82451,4.77298 c 5.3644,14.03341 14.77162,36.26784 15.34567,36.27023 0.36348,0.002 4.90717,-1.12744 10.09708,-2.50879 z M 398.91052,351.25 c 3.73639,-14.18733 10.12128,-40.55153 9.87938,-40.79344 -1.3806,-1.38059 -37.05019,-4.10938 -40.94832,-3.13261 -2.57104,0.64423 -2.57768,0.7246 -1.37849,16.67605 0.3101,4.125 0.84878,11.85525 1.19706,17.17834 0.34828,5.32309 0.90473,10.10685 1.23655,10.63059 0.33181,0.52373 6.1793,1.21948 12.99441,1.5461 6.81511,0.32662 12.62761,0.83036 12.91667,1.11942 1.48538,1.48538 3.22175,0.12072 4.10274,-3.22445 z M 173.40499,872.75 171.5,870.5 l 2.25,1.90499 c 2.11444,1.79022 2.70524,2.59501 1.90499,2.59501 -0.18976,0 -1.20226,-1.0125 -2.25,-2.25 z m 210.10209,-38.73855 c -0.35034,-0.56686 0.0511,-0.7345 0.94098,-0.39301 1.73242,0.66479 2.04939,1.38156 0.61096,1.38156 -0.51754,0 -1.21592,-0.44485 -1.55194,-0.98855 z M 993,696.62244 c 0,-0.20765 0.7875,-0.99515 1.75,-1.75 1.58606,-1.24387 1.62143,-1.2085 0.37756,0.37756 C 993.82119,696.91575 993,697.44548 993,696.62244 Z M 143.8125,530.31689 c 0.72187,-0.28887 1.58437,-0.25335 1.91667,0.0789 0.33229,0.33229 -0.25834,0.56864 -1.3125,0.52522 -1.16495,-0.048 -1.4019,-0.28494 -0.60417,-0.60416 z m 15,-1 c 0.72187,-0.28887 1.58437,-0.25335 1.91667,0.0789 0.33229,0.33229 -0.25834,0.56864 -1.3125,0.52522 -1.16495,-0.048 -1.4019,-0.28494 -0.60417,-0.60416 z m 15,-1 c 0.72187,-0.28887 1.58437,-0.25335 1.91667,0.0789 0.33229,0.33229 -0.25834,0.56864 -1.3125,0.52522 -1.16495,-0.048 -1.4019,-0.28494 -0.60417,-0.60416 z M 507.75,506.33772 c 0.6875,-0.27741 1.8125,-0.27741 2.5,0 0.6875,0.27741 0.125,0.50439 -1.25,0.50439 -1.375,0 -1.9375,-0.22698 -1.25,-0.50439 z m 47.0625,-3.02083 c 0.72187,-0.28887 1.58438,-0.25335 1.91667,0.0789 0.33229,0.33229 -0.25834,0.56864 -1.3125,0.52522 -1.16495,-0.048 -1.4019,-0.28494 -0.60417,-0.60416 z m 46,-3 c 0.72187,-0.28887 1.58438,-0.25335 1.91667,0.0789 0.33229,0.33229 -0.25834,0.56864 -1.3125,0.52522 -1.16495,-0.048 -1.4019,-0.28494 -0.60417,-0.60416 z m 61,-4 c 0.72187,-0.28887 1.58438,-0.25335 1.91667,0.0789 0.33229,0.33229 -0.25834,0.56864 -1.3125,0.52522 -1.16495,-0.048 -1.4019,-0.28494 -0.60417,-0.60416 z m -369.73355,-2.90022 c 0.048,-1.16495 0.28494,-1.4019 0.60416,-0.60417 0.28887,0.72187 0.25335,1.58438 -0.0789,1.91667 -0.33229,0.33229 -0.56864,-0.25834 -0.52522,-1.3125 z m 415.73355,-0.0998 c 0.72187,-0.28887 1.58438,-0.25335 1.91667,0.0789 0.33229,0.33229 -0.25834,0.56864 -1.3125,0.52522 -1.16495,-0.048 -1.4019,-0.28494 -0.60417,-0.60416 z m 15,-1 c 0.72187,-0.28887 1.58438,-0.25335 1.91667,0.0789 0.33229,0.33229 -0.25834,0.56864 -1.3125,0.52522 -1.16495,-0.048 -1.4019,-0.28494 -0.60417,-0.60416 z m -430.73355,-2.90022 c 0.048,-1.16495 0.28494,-1.4019 0.60416,-0.60417 0.28887,0.72187 0.25335,1.58438 -0.0789,1.91667 -0.33229,0.33229 -0.56864,-0.25834 -0.52522,-1.3125 z m 493.73355,-1.09978 c 0.72187,-0.28887 1.58438,-0.25335 1.91667,0.0789 0.33229,0.33229 -0.25834,0.56864 -1.3125,0.52522 -1.16495,-0.048 -1.4019,-0.28494 -0.60417,-0.60416 z m 15,-1 c 0.72187,-0.28887 1.58438,-0.25335 1.91667,0.0789 0.33229,0.33229 -0.25834,0.56864 -1.3125,0.52522 -1.16495,-0.048 -1.4019,-0.28494 -0.60417,-0.60416 z m 15,-1 c 0.72187,-0.28887 1.58438,-0.25335 1.91667,0.0789 0.33229,0.33229 -0.25834,0.56864 -1.3125,0.52522 -1.16495,-0.048 -1.4019,-0.28494 -0.60417,-0.60416 z M 1036.8724,480.25 c -1.2438,-1.58606 -1.2085,-1.62143 0.3776,-0.37756 1.6657,1.30637 2.1955,2.12756 1.3724,2.12756 -0.2076,0 -0.9951,-0.7875 -1.75,-1.75 z m -130.0599,0.0669 c 0.72187,-0.28887 1.58438,-0.25335 1.91667,0.0789 0.33229,0.33229 -0.25834,0.56864 -1.3125,0.52522 -1.16495,-0.048 -1.4019,-0.28494 -0.60417,-0.60416 z m 15,-1 c 0.72187,-0.28887 1.58438,-0.25335 1.91667,0.0789 0.33229,0.33229 -0.25834,0.56864 -1.3125,0.52522 -1.16495,-0.048 -1.4019,-0.28494 -0.60417,-0.60416 z m 15,-1 c 0.72187,-0.28887 1.58438,-0.25335 1.91667,0.0789 0.33229,0.33229 -0.25834,0.56864 -1.3125,0.52522 -1.16495,-0.048 -1.4019,-0.28494 -0.60417,-0.60416 z"
         style="display:inline;fill:#302a2c" />
      <path
         id="path24"
         d="m 188.5,881.06169 c -8.20667,-2.00677 -16.39639,-8.78332 -20.48494,-16.95016 -1.49388,-2.98402 -4.06982,-14.82524 -8.04898,-37 C 156.74749,809.17519 144.83295,742.975 133.48933,680 117.10015,589.01425 112.95386,564.26177 113.29942,559.47059 c 0.43053,-5.9693 2.98805,-12.42652 6.91051,-17.44759 2.81149,-3.59895 10.624,-8.90207 14.73614,-10.00288 2.74905,-0.73592 41.30888,-3.78241 49.05393,-3.8756 0.825,-0.01 4.65,-0.25448 8.5,-0.54346 15.05931,-1.13033 34.07376,-2.42699 35.5,-2.42087 0.825,0.004 10.95,-0.70228 22.5,-1.5685 11.55,-0.86622 21.9,-1.5553 23,-1.5313 3.41276,0.0745 20.9226,-1.16966 21.26379,-1.51085 0.1777,-0.17769 -0.15791,-4.19384 -0.7458,-8.92477 -1.60498,-12.91579 -1.38809,-27.51597 0.52495,-35.33857 2.235,-9.1391 9.29811,-23.96303 14.78923,-31.03937 22.92561,-29.54393 61.91998,-39.9581 96.82562,-25.85909 10.29024,4.15642 17.0827,8.83327 26.54645,18.27819 8.26658,8.25013 9.76156,10.33851 14.67508,20.5 6.55332,13.55272 8.58052,22.02372 9.34819,39.06291 l 0.57437,12.74884 7.59906,-0.46163 c 4.17948,-0.25389 13.67406,-0.87476 21.09906,-1.3797 7.425,-0.50494 14.625,-0.96907 16,-1.0314 1.375,-0.0623 29.275,-1.86569 62,-4.00747 32.725,-2.14178 60.175,-3.90828 61,-3.92556 0.825,-0.0173 11.4,-0.70581 23.5,-1.53009 12.1,-0.82428 22.675,-1.50694 23.5,-1.51702 0.825,-0.0101 4.65,-0.26137 8.5,-0.55842 8.70186,-0.67138 65.45116,-4.39524 67.5,-4.42931 0.825,-0.0137 15.225,-0.95381 32,-2.08908 16.775,-1.13528 34.325,-2.29162 39,-2.56964 10.37323,-0.61691 18.27646,-1.13465 36.5,-2.39112 7.7,-0.5309 14.675,-0.97067 15.5,-0.97727 0.825,-0.007 17.925,-1.12109 38,-2.47664 20.075,-1.35556 37.175,-2.47865 38,-2.49576 0.825,-0.0171 4.875,-0.29143 9,-0.6096 36.71293,-2.83172 61.4902,-4.14669 66.1693,-3.51172 6.8922,0.93529 12.2157,3.63053 17.7183,8.97057 5.4629,5.30153 8.2852,11.67572 8.8857,20.06823 0.4391,6.13827 -0.7481,11.14364 -16.7265,70.51611 -9.4595,35.14986 -17.6181,65.25884 -18.1301,66.90884 -0.512,1.65 -3.1818,11.55 -5.9329,22 -2.7511,10.45 -5.9945,21.17944 -7.2075,23.8432 -2.54855,5.59657 -8.43931,11.68376 -14.23922,14.71404 -2.39173,1.2496 -32.09115,8.52531 -72.87143,17.85191 l -68.83435,15.74266 -9.16565,-9.10887 c -7.27723,-7.23214 -10.92702,-9.99461 -17.71465,-13.40791 -4.70195,-2.36448 -11.45195,-4.92134 -15,-5.68191 -9.79489,-2.09967 -397.63316,-2.05458 -406.43737,0.0472 -17.80523,4.25063 -35.22436,17.90557 -43.89828,34.41207 -5.9527,11.32802 -7.93508,20.53289 -7.33081,34.03949 0.57212,12.78773 0.64138,13.19064 3.63287,21.13426 6.69333,17.77349 23.5937,34.65283 39.96184,39.91213 3.58139,1.15075 4.03687,1.54929 2.5,2.18749 -5.18868,2.15464 -191.25499,43.80185 -195.29041,43.71183 -2.52386,-0.0563 -5.93884,-0.43248 -7.58884,-0.83595 z M 372.62821,647.22093 c 5.61212,-2.90558 11.84851,-10.25045 14.49707,-17.07384 1.91571,-4.93537 2.24971,-8.13623 2.6501,-25.39709 L 390.23352,585 H 393.11676 396 v -7.5 -7.5 h -16 -16 v 7.5 7.5 h 4 4 v 19.03212 c 0,20.75943 -0.72284,24.42972 -5.41705,27.50548 -3.37683,2.21259 -11.49311,2.2226 -14.85724,0.0183 C 346.9431,628.42225 346,623.79772 346,603.47976 V 585 h 3.5 3.5 v -7.5 -7.5 h -16 -16 v 7.5 7.5 h 3.5 3.5 v 16.86351 c 0,9.27493 0.45055,19.23924 1.00122,22.14291 2.03132,10.71112 8.40011,19.33615 17.49878,23.69799 4.33889,2.08003 6.12389,2.34784 13.5,2.0254 6.17638,-0.27 9.62852,-0.95584 12.62821,-2.50888 z m 99.90391,1.3301 c 3.75569,-1.56923 4.09067,-2.76857 2.43661,-8.72386 -0.96323,-3.46799 -1.18357,-3.62594 -3.95099,-2.83226 -3.9591,1.13546 -6.71297,0.26698 -7.41163,-2.33736 -0.31834,-1.18665 -0.58495,-7.44505 -0.59246,-13.90755 L 463,609 h 5.5 5.5 v -7 -7 h -5 -5 v -10.5 c 0,-5.775 -0.23499,-10.5 -0.5222,-10.5 -0.28721,0 -4.11221,1.80502 -8.5,4.01116 L 447,582.02232 V 588.51116 595 h -4 -4 v 7 7 h 4 4 v 14.7656 c 0,16.6055 0.94793,19.85367 6.99949,23.9844 3.9438,2.69199 13.06351,3.08617 18.53263,0.80103 z m 97.51754,-0.0767 c 1.69115,-0.87453 2.95034,-1.08793 2.95034,-0.5 0,0.64145 4.30805,1.02568 11.5,1.02568 H 596 v -7.5 -7.5 H 592.5 589 V 621.2119 c 0,-11.27543 -0.26615,-13.31494 -2.25,-17.24193 -2.75848,-5.46035 -7.12992,-8.49184 -14.43095,-10.00752 -8.67455,-1.80083 -20.90224,0.73796 -27.0098,5.60796 l -2.75877,2.19977 2.3957,5.11491 c 1.31763,2.81321 2.48882,5.11492 2.60263,5.11492 0.11382,0 1.89449,-0.7051 3.95706,-1.5669 8.95538,-3.7418 21.49393,-1.50178 21.49427,3.83995 1.5e-4,2.1572 -0.26854,2.2158 -8.57859,1.87111 -13.61104,-0.56459 -20.67867,3.3066 -23.5532,12.90091 -2.19292,7.31933 1.96356,15.61162 9.55305,19.0586 5.10322,2.31776 15.48389,2.51379 19.62826,0.37065 z M 559,636.72504 c -1.52554,-0.77582 -2.6197,-2.29657 -2.80709,-3.90152 C 555.73154,628.8721 559.12202,627 566.73962,627 h 6.29461 l -0.28749,3.74629 c -0.21934,2.85826 -0.87526,4.01916 -2.76711,4.89744 -4.30831,2.0001 -8.38375,2.40146 -10.97963,1.08131 z m 164.04966,11.74928 C 724.74081,647.59979 726,647.38639 726,647.97432 726,648.61577 730.30805,649 737.5,649 H 749 v -7.5 -7.5 h -3.5 -3.5 v -12.78811 c 0,-11.27543 -0.26615,-13.31494 -2.25,-17.24193 -2.75848,-5.46035 -7.12992,-8.49184 -14.43095,-10.00752 -8.67455,-1.80083 -20.90224,0.73796 -27.0098,5.60796 l -2.75877,2.19977 2.3957,5.11491 c 1.31763,2.81321 2.48882,5.11492 2.60263,5.11492 0.11382,0 1.89449,-0.7051 3.95706,-1.5669 8.95538,-3.7418 21.49393,-1.50178 21.49427,3.83995 1.5e-4,2.1572 -0.26854,2.2158 -8.57859,1.87111 -13.61104,-0.56459 -20.67867,3.3066 -23.5532,12.90091 -2.19292,7.31933 1.96356,15.61162 9.55305,19.0586 5.10322,2.31776 15.48389,2.51379 19.62826,0.37065 z M 712,636.72504 c -1.52554,-0.77582 -2.6197,-2.29657 -2.80709,-3.90152 C 708.73154,628.8721 712.12202,627 719.73962,627 h 6.29461 l -0.28749,3.74629 c -0.21934,2.85826 -0.87526,4.01916 -2.76711,4.89744 -4.30831,2.0001 -8.38375,2.40146 -10.97963,1.08131 z m 89.5,10.54171 c 5.54887,-2.90135 13.5,-11.70467 13.5,-14.94691 0,-0.67933 -3.22196,-2.19469 -7.1599,-3.36746 -6.82319,-2.03204 -7.20687,-2.04838 -8.15874,-0.34748 -6.86053,12.25908 -23.66608,7.49867 -23.67762,-6.70702 -0.007,-9.10934 7.49747,-15.18637 15.94528,-12.91161 2.05335,0.55291 4.54958,1.90719 5.54716,3.00951 1.50145,1.65909 3.07863,2.00422 9.15881,2.00422 H 814 v -8 -8 h -4.37288 c -2.40509,0 -6.56759,-0.99029 -9.25,-2.20065 -7.44923,-3.36124 -18.10263,-3.14686 -25.58698,0.5149 -10.06046,4.92212 -15.18247,13.4285 -15.16529,25.18575 0.0176,12.07348 6.01028,21.61036 16.73814,26.63764 5.66885,2.65652 19.29357,2.18449 25.13701,-0.87089 z m 61.09468,-0.0287 c 16.73157,-8.66352 19.85462,-33.27325 5.85955,-46.17346 -6.12739,-5.64803 -10.59333,-7.35642 -19.45423,-7.442 -5.83854,-0.0564 -8.519,0.42411 -12.09986,2.16902 -13.22335,6.44358 -19.288,20.76726 -15.01737,35.46846 1.79703,6.18606 8.17494,13.37578 14.57913,16.43482 4.37479,2.08967 6.1572,2.35759 13.5381,2.03494 6.15222,-0.26894 9.63099,-0.95719 12.59468,-2.49178 z M 842.77514,633.4412 c -4.67684,-2.53803 -7.33425,-9.65112 -5.77245,-15.45118 2.53352,-9.40878 14.39594,-12.51685 20.98866,-5.49923 3.41087,3.63071 3.99746,12.17321 1.15204,16.7772 -3.44269,5.57039 -10.48506,7.3659 -16.36825,4.17321 z M 434.79381,641.75 434.5,634.5 430.25,634.1925 426,633.885 V 601.4425 569 h -12 -12 v 7.5 7.5 h 4 4 v 25 25 h -4 -4 v 7.5 7.5 h 16.54381 16.54381 z M 519,641.5 V 634 h -5.5 -5.5 v -10 c 0,-8.66667 0.26667,-10.26667 2,-12 1.1,-1.1 3.125,-2 4.5,-2 2,0 2.5,0.5 2.5,2.5 0,2.45833 0.13333,2.5 8,2.5 h 8 v -10 -10 h -9.54966 c -6.60417,0 -10.45966,0.47058 -12.5,1.52568 -2.6446,1.36757 -2.95034,1.36757 -2.95034,0 C 508,595.23919 506.03342,595 495.45619,595 h -12.54381 l 0.29381,7.25 0.29381,7.25 3.75,0.31037 3.75,0.31036 V 622.06037 634 h -4 -4 v 7.5 7.5 h 18 18 z m 119.79381,0.25 -0.29381,-7.25 -3.25,-0.31336 -3.25,-0.31336 0.0236,-17.18664 0.0236,-17.18664 6.45464,10 c 3.55006,5.5 10.62696,16.62915 15.72645,24.73144 l 9.2718,14.73145 9.25,0.0186 9.25,0.0186 v -32 -32 h 3 3 v -7.5 -7.5 H 672.6341 657.26812 l 0.11598,7.25 0.11599,7.25 3.25,0.31336 3.25,0.31336 v 17.10331 c 0,9.40681 -0.3375,16.76741 -0.75,16.35687 -0.4125,-0.41053 -7.34553,-11.39803 -15.40674,-24.41666 L 633.18652,570.5 l -12.63768,-0.28021 -12.63768,-0.28021 0.29442,7.28021 0.29442,7.28021 3.25,0.31336 3.25,0.31336 V 609.5 633.87328 l -3.25,0.31336 -3.25,0.31336 -0.29381,7.25 -0.29381,7.25 H 623.5 639.08762 Z"
         style="display:inline;fill:#192538" />
</svg>
